<svg width="1440" height="78" viewBox="0 0 1440 78" fill="none" xmlns="http://www.w3.org/2000/svg">
<path fill-rule="evenodd" clip-rule="evenodd" d="M1455 -0.000190735L6.7448e-06 -0.000317935L5.16465e-06 18.0746C10.9163 20.6176 29.1273 15.5041 43.866 18.667C49.8112 19.9431 56.1758 19.614 61.3444 21.3967C64.4833 22.4791 67.198 24.6621 71.8862 25.0818C76.9627 25.536 90.0592 21.664 90.9371 32.2208L113.916 36.5231C116.936 37.1597 120.695 40.051 123.447 41.138C125.435 41.9228 127.108 42.0454 128.871 42.7872C136.423 45.9627 131.772 48.1964 145.501 47.3857C150.403 47.0963 152.486 46.4333 158.662 46.3938C168.29 46.3324 193.76 41.5347 208.055 40.2142C216.51 39.4332 224.323 36.6512 232.388 36.2553C245.327 35.6192 245.897 36.0081 257.928 33.5011C262.217 32.6075 268.047 33.5182 270.641 34.3924C274.44 35.6735 279.797 35.2527 283.927 35.2527L286.742 38.5004C285.959 41.0445 287.011 40.3613 282.916 41.3151L282.916 43.3357C287.617 43.727 284.519 43.8984 288.441 44.8844C291.07 45.5452 292.224 45.3566 295.041 45.3566C295.493 49.4881 295.237 46.9949 296.14 48.2991C297.32 50.002 307.177 53.9988 309.821 54.8269C312.092 55.5387 314.246 55.8943 316.222 56.5097C322.815 58.5624 330.999 55.9559 337.91 59.0715C342.69 61.2264 338.545 59.6138 342.531 62.5342C346.58 62.1974 348.136 61.4752 353.646 61.4763C362.828 61.4788 369.898 63.3972 378.893 62.5214C384.398 61.9854 382.941 59.998 389.915 60.5117C401.649 61.3758 400.725 63.1367 412.51 60.7741C420.419 59.1884 425.799 56.1775 434.35 58.6197C439.006 59.95 440.499 58.9072 445.497 59.602C450.43 60.2879 450.411 63.253 454.96 61.8889C458.514 60.8231 459.8 59.1124 464.901 58.6022C470.581 58.0341 472.095 59.529 476.737 57.3027C479.672 55.8946 482.418 54.277 486.853 54.5793C492.268 54.948 506.167 54.864 511.437 56.3862C515.008 57.4177 515.417 59.141 516.323 62.5347C520.95 62.5347 523.856 62.9473 527.519 63.4634C538.874 65.0638 550.828 67.6049 562.767 67.6213C574.365 67.6376 588.93 70.9439 591.091 64.8758L590.083 50.4097C595.891 47.6228 599.859 46.066 605.427 47.1901C616.944 49.5145 625.408 39.3746 643.266 42.6962C647.06 43.402 649.142 45.0471 651.777 45.1937C655.869 45.4215 655.799 43.8955 662.256 44.8907C686.726 48.6621 709.175 37.3897 733.253 41.625C735.973 42.1032 740.475 42.3261 744.677 42.3261L744.677 46.3676C750.152 46.3676 753.768 44.2375 756.746 46.8355C759.726 49.4358 753.552 47.0375 760.385 49.7769L765.896 52.4303C761.432 53.4705 760.978 54.0915 758.383 56.0325C756.442 57.4844 755.62 57.1841 754.781 59.5034C757.361 58.9023 760.46 58.6393 763.269 57.8869C770.913 55.8391 768.134 53.5713 787.35 50.6451C795.549 49.3968 808.004 49.4576 816.269 51.5676C820.241 52.5818 821.318 53.441 825.51 53.441C826.752 58.7696 824.363 58.169 828.371 59.6078C837.134 62.7544 849.893 59.5023 859.887 59.4795C864.38 59.4694 867.449 60.2414 870.064 60.312C873.94 60.4166 874.222 58.9963 879.762 59.746C888.641 60.9474 892.06 60.3038 900.362 58.5739C913.451 55.847 925.928 61.2202 941.124 58.9197C948.146 57.8567 956.04 58.3873 961.856 59.6329C967.521 60.8461 973.684 59.0568 981.965 60.7204C987.854 61.9034 982.819 62.5152 990.292 61.7358C1001.35 60.5823 1011.68 62.5375 1022.54 62.5348C1029.41 62.5331 1038.07 62.0704 1044.72 62.5811C1051.07 63.0678 1058.21 65.2233 1064.97 65.5718C1068.22 65.7397 1072.84 65.6999 1076.13 65.5988C1081.06 65.4468 1081.77 64.2559 1086.16 64.5219C1090.15 64.7631 1100.53 69.0147 1103.24 70.7513C1110.06 75.1231 1114.69 70.878 1122.41 71.765C1130.98 72.7496 1133.34 70.4371 1141.91 73.5148C1155.86 78.5256 1155.66 69.125 1180.76 73.0788C1190.51 74.6143 1192.56 70.3058 1199.38 72.5561C1216.3 78.1468 1225.47 77.9313 1242.77 75.6243C1247.58 74.9828 1244.06 75.4171 1247.58 74.3778C1252.01 73.0701 1253.5 74.1154 1257.96 73.6456C1263.54 73.0592 1260.96 71.2037 1266.14 70.6928C1267.83 70.5254 1273.12 71.431 1276.06 71.7212C1303.29 74.4051 1298.59 71.2143 1317.6 71.5656C1322.55 71.6569 1323.47 72.5608 1327.45 72.403C1335.64 72.0787 1348.38 71.2402 1356.03 69.597C1369.6 66.6845 1374.65 69.0951 1384.37 69.6169C1390.3 69.9349 1388.99 68.3732 1393.48 67.7018C1401.36 66.5224 1424.28 67.5467 1425.34 67.2816C1429.09 66.3469 1427.43 65.0329 1434.74 65.6182C1441.42 66.1534 1446.84 64.556 1455 64.556L1455 0.00170898L1455 -0.000190735Z" fill="#2E2E2E"/>
</svg>
