<svg width="1440" height="78" viewBox="0 0 1440 78" fill="none" xmlns="http://www.w3.org/2000/svg">
<path fill-rule="evenodd" clip-rule="evenodd" d="M0 77.1516H1455V59.0767C1444.08 56.5336 1425.87 61.6472 1411.13 58.4842C1405.19 57.2081 1398.82 57.5373 1393.66 55.7546C1390.52 54.6722 1387.8 52.4891 1383.11 52.0695C1378.04 51.6152 1364.94 55.4872 1364.06 44.9304L1341.08 40.6281C1338.06 39.9916 1334.3 37.1003 1331.55 36.0133C1329.57 35.2285 1327.89 35.1058 1326.13 34.3641C1318.58 31.1886 1323.23 28.9549 1309.5 29.7656C1304.6 30.055 1302.51 30.718 1296.34 30.7575C1286.71 30.8188 1261.24 35.6165 1246.94 36.9371C1238.49 37.7181 1230.68 40.5001 1222.61 40.896C1209.67 41.532 1209.1 41.1432 1197.07 43.6502C1192.78 44.5437 1186.95 43.633 1184.36 42.7588C1180.56 41.4778 1175.2 41.8985 1171.07 41.8985L1168.26 38.6508C1169.04 36.1068 1167.99 36.7899 1172.08 35.8362V33.8155C1167.38 33.4242 1170.48 33.2528 1166.56 32.2669C1163.93 31.6061 1162.78 31.7946 1159.96 31.7946C1159.51 27.6632 1159.76 30.1564 1158.86 28.8522C1157.68 27.1493 1147.82 23.1525 1145.18 22.3243C1142.91 21.6125 1140.75 21.2569 1138.78 20.6416C1132.18 18.5888 1124 21.1953 1117.09 18.0798C1112.31 15.9248 1116.46 17.5375 1112.47 14.6171C1108.42 14.9539 1106.86 15.676 1101.35 15.675C1092.17 15.6725 1085.1 13.7541 1076.11 14.6299C1070.6 15.1659 1072.06 17.1533 1065.08 16.6396C1053.35 15.7755 1054.28 14.0146 1042.49 16.3772C1034.58 17.9629 1029.2 20.9738 1020.65 18.5316C1015.99 17.2012 1014.5 18.2441 1009.5 17.5492C1004.57 16.8633 1004.59 13.8982 1000.04 15.2624C996.486 16.3281 995.2 18.0389 990.099 18.5491C984.419 19.1172 982.905 17.6223 978.263 19.8486C975.328 21.2567 972.582 22.8742 968.147 22.572C962.732 22.2033 948.833 22.2873 943.563 20.7651C939.992 19.7336 939.583 18.0103 938.677 14.6166C934.05 14.6166 931.144 14.204 927.481 13.6879C916.126 12.0874 904.172 9.54634 892.233 9.52999C880.635 9.51364 866.07 6.20735 863.909 12.2755L864.917 26.7416C859.109 29.5285 855.141 31.0853 849.572 29.9612C838.056 27.6368 829.592 37.7767 811.734 34.4551C807.94 33.7493 805.858 32.1042 803.223 31.9576C799.131 31.7298 799.201 33.2558 792.744 32.2606C768.274 28.4892 745.825 39.7616 721.747 35.5263C719.027 35.0481 714.525 34.8252 710.323 34.8252V30.7837C704.848 30.7837 701.232 32.9138 698.254 30.3158C695.274 27.7155 701.448 30.1138 694.615 27.3744L689.104 24.721C693.568 23.6808 694.022 23.0598 696.617 21.1188C698.558 19.6669 699.38 19.9672 700.219 17.6479C697.639 18.249 694.54 18.512 691.731 19.2644C684.087 21.3122 686.866 23.58 667.65 26.5062C659.451 27.7545 646.996 27.6937 638.731 25.5837C634.759 24.5695 633.682 23.7103 629.49 23.7103C628.248 18.3817 630.637 18.9823 626.629 17.5435C617.866 14.3969 605.107 17.649 595.113 17.6719C590.62 17.6819 587.551 16.9099 584.936 16.8394C581.06 16.7347 580.778 18.155 575.238 17.4054C566.359 16.2039 562.94 16.8475 554.638 18.5774C541.549 21.3043 529.072 15.9311 513.876 18.2316C506.854 19.2946 498.96 18.7641 493.144 17.5184C487.479 16.3053 481.316 18.0945 473.035 16.4309C467.146 15.2479 472.181 14.6362 464.708 15.4155C453.646 16.569 443.316 14.6138 432.459 14.6166C425.588 14.6182 416.932 15.0809 410.276 14.5702C403.932 14.0835 396.791 11.928 390.028 11.5795C386.775 11.4116 382.161 11.4514 378.874 11.5525C373.936 11.7046 373.232 12.8954 368.835 12.6295C364.851 12.3883 354.467 8.13668 351.759 6.40001C344.94 2.02823 340.309 6.2733 332.586 5.3863C324.015 4.40174 321.665 6.71421 313.093 3.63655C299.138 -1.37425 299.338 8.02632 274.237 4.07256C264.488 2.537 262.437 6.84556 255.625 4.59522C238.7 -0.99547 229.529 -0.77992 212.234 1.5271C207.424 2.16857 210.936 1.7342 207.418 2.77353C202.99 4.08128 201.502 3.03595 197.036 3.50575C191.461 4.09218 194.039 5.94766 188.864 6.4586C187.17 6.62592 181.882 5.72039 178.938 5.43017C151.711 2.74628 156.414 5.93703 137.399 5.58577C132.448 5.49448 131.534 4.59059 127.549 4.74837C119.357 5.07265 106.621 5.91114 98.966 7.55434C85.3973 10.4669 80.3497 8.05629 70.6281 7.53445C64.6976 7.21643 66.0094 8.77815 61.5218 9.4496C53.6407 10.629 30.7183 9.60466 29.6555 9.8698C25.911 10.8045 27.5709 12.1185 20.2634 11.5332C13.5849 10.998 8.15604 12.5954 0.000817512 12.5954V77.1497L0 77.1516Z" fill="#2E2E2E"/>
</svg>
