<svg width="138" height="139" viewBox="0 0 138 139" fill="none" xmlns="http://www.w3.org/2000/svg">
<rect x="0.22168" width="137.778" height="138.188" rx="68.889" fill="white"/>
<path d="M87.3456 52.472C93.238 61.1891 96.148 71.0217 95.0601 82.3413C95.0556 82.3892 95.0308 82.4332 94.9917 82.462C90.5295 85.7588 86.2062 87.7596 81.9436 89.0865C81.9104 89.0966 81.8749 89.096 81.8421 89.0849C81.8092 89.0737 81.7806 89.0524 81.7604 89.0241C80.7756 87.6454 79.8808 86.1919 79.0969 84.6656C79.0519 84.5757 79.093 84.4674 79.1856 84.432C80.6067 83.8932 81.958 83.2475 83.2578 82.483C83.3602 82.4227 83.3667 82.275 83.2721 82.2041C82.9962 81.9981 82.723 81.7815 82.4615 81.565C82.4125 81.525 82.3467 81.5171 82.2912 81.544C73.8528 85.4648 64.6089 85.4648 56.0706 81.544C56.0152 81.5191 55.9493 81.5276 55.9017 81.567C55.6408 81.7835 55.3669 81.9981 55.0937 82.2041C54.9991 82.275 55.0069 82.4227 55.11 82.483C56.4098 83.2331 57.7611 83.8932 59.1802 84.4346C59.2721 84.47 59.3158 84.5757 59.2702 84.6656C58.5032 86.1939 57.6084 87.6474 56.6054 89.0261C56.5617 89.0819 56.49 89.1075 56.4221 89.0865C52.1798 87.7596 47.8565 85.7588 43.3943 82.462C43.3572 82.4332 43.3304 82.3872 43.3265 82.3393C42.4174 72.5481 44.2702 62.6341 51.0339 52.4701C51.0502 52.4432 51.075 52.4222 51.1037 52.4097C54.4317 50.8729 57.9971 49.7422 61.7237 49.0965C61.7915 49.086 61.8593 49.1175 61.8945 49.1779C62.355 49.9981 62.8813 51.05 63.2374 51.9097C67.1654 51.306 71.1547 51.306 75.1649 51.9097C75.521 51.0684 76.0291 49.9981 76.4876 49.1779C76.5039 49.1479 76.5292 49.1239 76.5599 49.1093C76.5906 49.0947 76.6251 49.0902 76.6584 49.0965C80.3869 49.7442 83.9523 50.8748 87.2778 52.4097C87.3071 52.4222 87.3312 52.4432 87.3456 52.472ZM65.2343 71.0886C65.2754 68.1941 63.178 65.799 60.5452 65.799C57.9339 65.799 55.8567 68.1731 55.8567 71.0886C55.8567 74.0035 57.975 76.3777 60.5452 76.3777C63.1571 76.3777 65.2343 74.0035 65.2343 71.0886ZM82.5704 71.0886C82.6115 68.1941 80.5141 65.799 77.8819 65.799C75.2699 65.799 73.1928 68.1731 73.1928 71.0886C73.1928 74.0035 75.311 76.3777 77.8819 76.3777C80.5141 76.3777 82.5704 74.0035 82.5704 71.0886Z" fill="black"/>
</svg>
