<svg width="138" height="139" viewBox="0 0 138 139" fill="none" xmlns="http://www.w3.org/2000/svg">
<rect width="137.778" height="138.188" rx="68.889" fill="white"/>
<path d="M92.7511 54.6281C91.2393 55.2787 89.6499 55.7318 88.0222 55.9761C88.7832 55.8456 89.9029 54.4759 90.3486 53.9215C91.0257 53.0852 91.5418 52.1305 91.8705 51.1059C91.8705 51.0298 91.9466 50.9211 91.8705 50.8667C91.8322 50.8458 91.7892 50.8348 91.7455 50.8348C91.7018 50.8348 91.6589 50.8458 91.6205 50.8667C89.8531 51.8238 87.9721 52.5543 86.022 53.0409C85.954 53.0617 85.8817 53.0636 85.8127 53.0463C85.7438 53.0291 85.6808 52.9934 85.6306 52.9431C85.4788 52.7623 85.3154 52.5917 85.1414 52.4322C84.346 51.7195 83.4436 51.1362 82.4672 50.7037C81.1491 50.1629 79.7254 49.9287 78.3036 50.0188C76.924 50.1059 75.5771 50.476 74.3466 51.1059C73.1349 51.77 72.0699 52.6723 71.2158 53.7584C70.3172 54.8763 69.6686 56.1737 69.3133 57.5632C69.0204 58.885 68.9872 60.2511 69.2155 61.5855C69.2155 61.8138 69.2155 61.8464 69.0198 61.8138C61.2688 60.6723 54.9093 57.922 49.713 52.0191C49.4847 51.7582 49.3651 51.7582 49.1803 52.0191C46.9192 55.4543 48.0172 60.8898 50.8436 63.5749C51.2241 63.9336 51.6154 64.2815 52.0285 64.6076C50.7326 64.5156 49.4684 64.1644 48.3107 63.5749C48.0932 63.4336 47.9737 63.5097 47.9628 63.7706C47.932 64.1323 47.932 64.4959 47.9628 64.8577C48.1896 66.5911 48.8728 68.2333 49.9424 69.6161C51.012 70.999 52.4297 72.073 54.0505 72.7282C54.4456 72.8975 54.8573 73.025 55.2789 73.1087C54.0793 73.3449 52.8488 73.3816 51.6372 73.2174C51.3763 73.1631 51.2784 73.3044 51.3763 73.5544C52.9743 77.9028 56.4421 79.229 58.9859 79.9683C59.3338 80.0226 59.6817 80.0226 60.073 80.1096C60.073 80.1096 60.073 80.1096 60.0078 80.1748C59.2577 81.5446 56.2247 82.4686 54.8332 82.9469C52.2934 83.8592 49.5855 84.2079 46.8974 83.9688C46.4735 83.9036 46.3756 83.9144 46.2669 83.9688C46.1582 84.0231 46.2669 84.1427 46.3865 84.2514C46.9301 84.6102 47.4736 84.9254 48.0389 85.2298C49.7218 86.1477 51.5009 86.8769 53.3439 87.404C62.8886 90.0348 73.6291 88.0997 80.7931 80.9793C86.4242 75.3916 88.4027 67.6841 88.4027 59.9657C88.4027 59.6722 88.7615 59.4983 88.968 59.3461C90.3927 58.236 91.6487 56.9251 92.6967 55.4543C92.8783 55.235 92.9713 54.9559 92.9576 54.6716C92.9576 54.5085 92.9576 54.5411 92.7511 54.6281Z" fill="black"/>
</svg>
