<svg width="138" height="139" viewBox="0 0 138 139" fill="none" xmlns="http://www.w3.org/2000/svg">
<rect width="137.778" height="138.188" rx="68.889" fill="white"/>
<path d="M29.776 79.8203H33.28L35.152 63.0203H32.848L31.48 76.3643L30.16 63.0203H27.616L26.344 76.2683L24.928 63.0203H22.36L24.232 79.8203H27.856L28.816 70.8683L29.776 79.8203ZM39.1234 72.6203H42.1234V79.8203H44.8114V63.0203H42.1234V70.2203H39.1234V63.0203H36.4834V79.8203H39.1234V72.6203ZM46.7256 79.8203H49.3656V63.0203H46.7256V79.8203ZM50.5279 65.4203H53.2879V79.8203H55.9279V65.4203H58.6879V63.0203H50.5279V65.4203ZM62.4906 65.4203H67.0506V63.0203H59.8506V79.8203H67.0506V77.4203H62.4906V72.5003H66.1146V70.1003H62.4906V65.4203ZM72.5746 63.0203H68.6866V79.8203H71.3266V73.5083H72.5746C75.2146 73.5083 76.5106 72.0443 76.5106 69.3563V67.1723C76.5106 64.4843 75.2146 63.0203 72.5746 63.0203ZM72.5746 65.4203C73.4146 65.4203 73.8706 65.8043 73.8706 67.0043V69.5243C73.8706 70.7243 73.4146 71.1083 72.5746 71.1083H71.3266V65.4203H72.5746ZM83.4019 63.0203H79.5379L76.8499 79.8203H79.2739L79.7299 76.7723H82.9699L83.4259 79.8203H86.0899L83.4019 63.0203ZM81.3379 65.9963L82.6099 74.4923H80.0659L81.3379 65.9963ZM91.2074 63.0203H87.3194V79.8203H89.9594V73.5083H91.2074C93.8474 73.5083 95.1434 72.0443 95.1434 69.3563V67.1723C95.1434 64.4843 93.8474 63.0203 91.2074 63.0203ZM91.2074 65.4203C92.0474 65.4203 92.5034 65.8043 92.5034 67.0043V69.5243C92.5034 70.7243 92.0474 71.1083 91.2074 71.1083H89.9594V65.4203H91.2074ZM99.1234 65.4203H103.683V63.0203H96.4834V79.8203H103.683V77.4203H99.1234V72.5003H102.747V70.1003H99.1234V65.4203ZM113.527 79.8203C113.263 79.1963 113.239 78.5963 113.239 77.7803V75.1883C113.239 73.4363 112.807 72.1643 111.487 71.6123C112.663 71.0603 113.215 69.9323 113.215 68.2043V66.8843C113.215 64.2923 112.039 63.0203 109.303 63.0203H105.319V79.8203H107.959V72.9803H108.871C110.071 72.9803 110.599 73.5563 110.599 75.1163V77.7563C110.599 79.1243 110.695 79.3883 110.839 79.8203H113.527ZM109.231 65.4203C110.167 65.4203 110.575 65.9483 110.575 67.1483V68.8043C110.575 70.1483 109.975 70.5803 108.991 70.5803H107.959V65.4203H109.231Z" fill="black"/>
</svg>
