<svg width="393" height="122" viewBox="0 0 393 122" fill="none" xmlns="http://www.w3.org/2000/svg">
<path fill-rule="evenodd" clip-rule="evenodd" d="M83.6623 0.00901704C84.5431 -0.0945978 84.5221 0.715693 84.6642 1.36416C83.4887 1.62145 83.1683 0.478194 83.6623 0.00901704Z" fill="#FF3F12"/>
<path fill-rule="evenodd" clip-rule="evenodd" d="M114.08 0.686523C116.724 0.716793 117.526 2.61329 118.759 4.07554C118.13 5.35734 116.573 5.70078 116.419 7.46572C115.386 5.75666 115.145 4.99643 113.076 4.75428C114.219 4.2199 114.182 2.48756 114.08 0.687688V0.686523Z" fill="#FF3F12"/>
<path fill-rule="evenodd" clip-rule="evenodd" d="M20.4854 1.36328C21.2159 1.41451 21.2042 2.21781 21.1541 3.05837C19.9949 3.29587 19.9553 1.87204 20.4854 1.36328Z" fill="#FF3F12"/>
<path fill-rule="evenodd" clip-rule="evenodd" d="M67.9526 4.4147C68.139 3.89546 69.8028 3.17248 68.6191 2.38198C70.0649 1.34467 69.2727 4.13761 69.6233 4.75348C68.8486 4.86175 68.3394 4.69876 67.9526 4.4147Z" fill="#FF3F12"/>
<path fill-rule="evenodd" clip-rule="evenodd" d="M80.6543 2.04267C81.6598 1.69922 81.245 2.79707 81.3219 3.39897C80.9887 3.39897 80.6543 3.39897 80.3188 3.39897C80.1778 2.68997 80.5471 2.50136 80.6543 2.04267Z" fill="#FF3F12"/>
<path fill-rule="evenodd" clip-rule="evenodd" d="M166.891 6.10955C166.632 6.41225 166.533 6.87444 166.558 7.46586C166.111 7.46586 165.666 7.46586 165.22 7.46586C165.22 7.12707 165.22 6.78945 165.22 6.44834C165.608 6.16311 166.116 6.00245 166.891 6.10955Z" fill="#FF3F12"/>
<path fill-rule="evenodd" clip-rule="evenodd" d="M66.9496 6.44824C67.5357 6.63568 67.6731 9.18297 66.2797 8.48095C66.1189 7.41337 67.305 7.71374 66.9496 6.44824Z" fill="#FF3F12"/>
<path fill-rule="evenodd" clip-rule="evenodd" d="M52.2406 13.5654C52.5098 13.7447 52.7835 13.9182 53.2426 13.9042C53.2006 14.7669 52.7567 15.2198 51.9062 15.2605C52.187 14.8659 52.3478 14.3524 52.2406 13.5654Z" fill="#FF3F12"/>
<path fill-rule="evenodd" clip-rule="evenodd" d="M120.43 13.9042C120.534 13.4455 121.267 13.6236 121.766 13.5654C121.626 15.6354 121.642 15.8659 120.765 17.2932C119.502 16.1011 121.68 15.5295 121.099 13.9054C120.877 13.9054 120.653 13.9054 120.43 13.9054V13.9042Z" fill="#FF3F12"/>
<path fill-rule="evenodd" clip-rule="evenodd" d="M50.5688 14.5829C50.5315 15.4468 50.507 16.3246 49.568 16.278C49.6088 15.6692 49.1579 15.5632 49.2325 14.9217C49.5319 14.6586 49.9874 14.5573 50.5688 14.5829Z" fill="#FF3F12"/>
<path fill-rule="evenodd" clip-rule="evenodd" d="M43.5489 16.2764C44.4868 16.224 44.6406 17.2345 44.2188 17.6327C45.1742 18.2439 46.7575 18.2194 46.5583 20.0042C45.6787 20.1055 45.462 19.535 45.5552 18.6479C45.0705 18.833 43.8274 18.252 43.8845 18.9878C42.9757 18.1554 43.472 17.4522 43.5489 16.2764Z" fill="#FF3F12"/>
<path fill-rule="evenodd" clip-rule="evenodd" d="M46.5583 17.293C46.9463 17.5782 47.4543 17.74 48.229 17.6329C47.4146 18.5457 49.0318 20.6703 47.2259 21.0219C48.0438 20.0778 46.754 18.959 47.5603 18.3105C47.6943 17.4979 46.0387 18.4991 46.5583 17.293Z" fill="#FF3F12"/>
<path fill-rule="evenodd" clip-rule="evenodd" d="M45.8895 21.361C45.1077 21.2492 44.5077 20.9535 43.8844 20.6845C43.9112 20.1455 43.7237 19.3899 44.2188 19.3271C45.2243 18.986 44.8107 20.0827 44.8864 20.6845C45.7683 20.5961 45.9839 19.9837 45.8907 21.361H45.8895Z" fill="#FF3F12"/>
<path fill-rule="evenodd" clip-rule="evenodd" d="M131.46 20.3433C132.489 20.0906 132.101 21.2723 133.132 21.0208C132.884 22.277 131.327 21.4283 131.46 20.3433Z" fill="#FF3F12"/>
<path fill-rule="evenodd" clip-rule="evenodd" d="M43.216 21.0217C44.0665 21.0613 44.5127 21.5153 44.5535 22.3756C44.2541 22.6388 43.7974 22.7412 43.216 22.7156C42.7861 22.2697 42.7861 21.4652 43.216 21.0205V21.0217Z" fill="#FF3F12"/>
<path fill-rule="evenodd" clip-rule="evenodd" d="M41.2096 23.056C41.8923 23.155 41.8655 23.9723 42.5459 24.0712C41.5638 25.4264 44.0558 26.0178 43.2158 27.1215C42.0776 27.1471 41.9692 26.1249 41.544 25.4264C40.9766 25.5521 40.9137 25.1633 40.8752 24.75C41.1455 24.9293 41.4181 25.1027 41.8795 25.0888C41.9739 24.5416 41.5626 24.5032 41.544 24.0701C40.5979 24.1271 40.1517 24.6929 39.2045 24.7488C38.8363 23.1329 41.1968 24.282 41.2096 23.0537V23.056Z" fill="#FF3F12"/>
<path fill-rule="evenodd" clip-rule="evenodd" d="M43.8847 25.0895C42.6765 25.4097 43.4175 23.7554 43.2159 23.0557C44.8098 23.0999 43.6598 23.8229 43.8847 25.0895Z" fill="#FF3F12"/>
<path fill-rule="evenodd" clip-rule="evenodd" d="M135.805 24.75C135.976 25.4229 133.96 25.5242 135.137 26.1051C135.199 26.3939 135.007 26.4253 134.802 26.4439C134.579 26.4439 134.355 26.4439 134.133 26.4439C134.366 26.1703 134.655 25.5161 134.133 25.4276C134.416 24.9246 135.208 24.9386 135.804 24.7512L135.805 24.75Z" fill="#FF3F12"/>
<path fill-rule="evenodd" clip-rule="evenodd" d="M37.5339 26.1044C38.1339 26.0613 38.2388 26.52 38.8726 26.4432C38.6955 26.7156 38.5219 26.9939 38.537 27.4607C37.6563 27.5643 37.4384 26.9927 37.5339 26.1044Z" fill="#FF3F12"/>
<path fill-rule="evenodd" clip-rule="evenodd" d="M36.5297 27.1211C37.8916 27.2387 36.5157 28.0106 37.1996 28.8162C36.3258 28.9117 35.7619 28.6916 35.8621 27.7987C36.4318 27.9232 36.4935 27.5344 36.5308 27.1211H36.5297Z" fill="#FF3F12"/>
<path fill-rule="evenodd" clip-rule="evenodd" d="M40.875 27.4601C41.0323 28.1074 39.8451 28.9188 41.2094 28.8164C40.0932 30.2728 38.3841 26.9874 40.875 27.4601Z" fill="#FF3F12"/>
<path fill-rule="evenodd" clip-rule="evenodd" d="M140.82 32.5439C141.232 32.6906 141.507 32.9782 141.488 33.5626C140.702 33.5533 140.506 34.1447 139.483 33.9003C139.694 33.2087 141.171 33.8048 140.82 32.5439Z" fill="#FF3F12"/>
<path fill-rule="evenodd" clip-rule="evenodd" d="M36.1965 39.6606C36.9142 38.4195 36.9701 40.6432 36.8641 41.3557C37.5433 41.6025 37.8218 42.7877 37.1996 43.3896C36.3608 43.0554 35.8202 42.0856 35.8621 41.0169C35.8924 40.2532 36.6486 40.0331 36.1977 39.6606H36.1965Z" fill="#FF3F12"/>
<path fill-rule="evenodd" clip-rule="evenodd" d="M138.48 40.68C138.621 41.3867 138.252 41.5765 138.146 42.0363C139.091 42.3158 139.011 41.5567 139.816 41.6964C139.816 42.3728 139.816 43.0527 139.816 43.7291C139.228 43.6488 139.056 43.1482 139.148 42.3728C138.373 42.4822 137.865 42.3204 137.477 42.0363C137.383 41.1492 137.599 40.5764 138.48 40.68Z" fill="#FF3F12"/>
<path fill-rule="evenodd" clip-rule="evenodd" d="M148.842 43.3899C148.539 43.9883 147.611 43.9499 147.506 44.7462C147.444 45.0349 147.634 45.064 147.839 45.0838C147.072 46.4727 147.394 44.0034 146.837 44.0675C146.874 43.2013 147.957 43.3946 148.843 43.3911L148.842 43.3899Z" fill="#FF3F12"/>
<path fill-rule="evenodd" clip-rule="evenodd" d="M140.485 44.0662C141.567 43.6471 140.741 45.1629 141.822 44.745C141.589 45.7869 141.589 45.3969 141.822 46.4389C141.376 46.4389 140.929 46.4389 140.485 46.4389C140.485 45.6484 140.485 44.8579 140.485 44.0662Z" fill="#FF3F12"/>
<path fill-rule="evenodd" clip-rule="evenodd" d="M32.186 45.084C32.8222 44.0293 33.6377 45.6149 34.5255 45.4228C35.5764 45.587 35.2816 44.3832 36.5294 44.7464C36.2801 45.7907 37.6828 45.1585 37.1993 46.4403C36.5049 47.1761 36.1193 46.3984 35.5274 46.1027C35.0032 46.0073 35.4168 46.9142 35.1931 47.1191C34.981 47.3123 32.6905 47.6185 32.5192 47.7966C32.6183 47.1051 33.4233 47.1307 33.5235 46.4403C33.0237 46.041 32.5787 45.5893 32.1872 45.084H32.186Z" fill="#FF3F12"/>
<path fill-rule="evenodd" clip-rule="evenodd" d="M142.49 46.4404C143.038 47.1285 142.017 49.1065 140.819 49.1519C140.819 48.4743 140.819 47.7956 140.819 47.118C141.022 46.5324 142.404 47.1436 142.49 46.4404Z" fill="#FF3F12"/>
<path fill-rule="evenodd" clip-rule="evenodd" d="M149.845 46.4404C150.129 46.3787 150.161 46.5719 150.179 46.7792C150.072 47.6779 152.052 46.4613 151.516 47.7955C150.267 47.7641 150.563 47.4148 149.511 47.7955C149.468 47.1878 149.918 47.0795 149.845 46.4392V46.4404Z" fill="#FF3F12"/>
<path fill-rule="evenodd" clip-rule="evenodd" d="M157.199 46.7793C156.261 47.2974 156.557 49.067 155.193 49.152C155.399 48.8353 155.971 47.9016 154.859 48.1356C155.408 47.4499 155.978 46.7851 157.2 46.7793H157.199Z" fill="#FF3F12"/>
<path fill-rule="evenodd" clip-rule="evenodd" d="M136.808 47.1175C138.008 46.9173 138.426 47.5122 139.149 47.7951C138.875 48.376 136.731 48.014 136.808 47.1175Z" fill="#FF3F12"/>
<path fill-rule="evenodd" clip-rule="evenodd" d="M139.816 47.7949C140.297 47.8718 139.933 48.8066 140.485 48.8124C140.448 49.4528 139.379 49.0464 139.482 49.8288C138.694 49.5412 139.76 48.3421 139.816 47.7949Z" fill="#FF3F12"/>
<path fill-rule="evenodd" clip-rule="evenodd" d="M32.186 48.1344C32.419 49.3068 31.014 49.351 30.5142 48.812C30.5631 48.0704 31.3553 48.0843 32.186 48.1344Z" fill="#FF3F12"/>
<path fill-rule="evenodd" clip-rule="evenodd" d="M144.163 48.813C143.721 49.7223 144.2 51.5641 142.491 51.1845C142.792 50.5873 143.298 50.1961 143.494 49.4906C143.165 48.5418 142.602 49.9831 142.158 49.1518C142.462 47.9224 143.143 48.9458 144.163 48.813Z" fill="#FF3F12"/>
<path fill-rule="evenodd" clip-rule="evenodd" d="M150.847 48.8125C151.183 48.8125 151.517 48.8125 151.85 48.8125C151.709 49.4598 151.73 50.2713 150.847 50.1688C150.847 49.7171 150.847 49.263 150.847 48.8125Z" fill="#FF3F12"/>
<path fill-rule="evenodd" clip-rule="evenodd" d="M152.853 49.1514C153.64 49.2573 153.051 50.7568 154.192 50.5077C153.613 52.1003 152.717 50.2841 152.853 49.1514Z" fill="#FF3F12"/>
<path fill-rule="evenodd" clip-rule="evenodd" d="M140.82 51.1844C141.388 51.061 141.449 51.4487 141.488 51.8632C141.877 51.9167 142.084 51.7875 142.158 51.5244C142.442 51.4615 142.472 51.6559 142.491 51.8632C142.491 52.0878 142.491 52.3137 142.491 52.5407C141.687 52.6793 141.764 51.9214 140.82 52.2008C140.82 51.8632 140.82 51.5244 140.82 51.1844Z" fill="#FF3F12"/>
<path fill-rule="evenodd" clip-rule="evenodd" d="M142.158 53.5567C143.07 53.3099 142.83 54.2307 143.494 54.2342C143.597 55.0166 142.529 54.6114 142.491 55.2518C141.642 55.218 141.703 53.9886 142.158 53.5567Z" fill="#FF3F12"/>
<path fill-rule="evenodd" clip-rule="evenodd" d="M144.163 54.9121C144.02 55.5582 143.443 55.7631 143.494 56.6072C143.557 56.8808 143.829 56.9448 143.829 57.2859C144.857 57.5386 144.235 56.1171 145.499 56.6072C145.694 57.7074 145.272 58.1847 145.165 58.9799C143.749 58.2604 141.089 59.9741 140.82 57.2848C141.86 57.4291 141.653 55.9925 142.158 55.5897C142.707 55.1519 143.614 55.3603 144.163 54.9121ZM141.823 57.6247C142.453 57.9041 143.561 58.8751 143.829 57.6247C142.92 57.6259 142.263 56.1997 141.823 57.6247Z" fill="#FF3F12"/>
<path fill-rule="evenodd" clip-rule="evenodd" d="M160.54 55.9297C161.271 55.9797 161.257 56.7831 161.209 57.6248C160.368 57.5433 159.825 56.6259 160.54 55.9297Z" fill="#FF3F12"/>
<path fill-rule="evenodd" clip-rule="evenodd" d="M32.5195 57.9619C32.9646 57.9619 33.412 57.9619 33.8559 57.9619C33.1289 58.6709 34.0225 58.9294 33.8559 59.997C33.2547 59.9539 33.151 60.4114 32.5195 60.3357C32.5195 59.5429 32.5195 58.7536 32.5195 57.9619Z" fill="#FF3F12"/>
<path fill-rule="evenodd" clip-rule="evenodd" d="M147.506 58.3008C148.49 58.7897 147.106 59.6664 146.168 59.3171C145.633 57.9841 147.612 59.2007 147.506 58.3008Z" fill="#FF3F12"/>
<path fill-rule="evenodd" clip-rule="evenodd" d="M150.18 59.6569C149.94 58.736 151.756 59.9002 151.516 58.9805C151.97 59.0852 151.793 59.8292 151.85 60.3368C150.785 60.6255 150.817 59.8036 150.18 59.658V59.6569Z" fill="#FF3F12"/>
<path fill-rule="evenodd" clip-rule="evenodd" d="M148.509 59.9971C149.164 60.3859 150.324 62.3732 148.509 62.3686C148.509 61.5792 148.509 60.7864 148.509 59.9971Z" fill="#FF3F12"/>
<path fill-rule="evenodd" clip-rule="evenodd" d="M150.847 62.3691C152.193 63.219 149.556 64.63 149.845 62.7079C150.318 62.737 150.791 62.765 150.847 62.3691Z" fill="#FF3F12"/>
<path fill-rule="evenodd" clip-rule="evenodd" d="M35.5276 62.7076C37.1331 62.4573 36.921 63.8032 37.1995 64.0639C36.6717 64.9033 35.4029 63.6518 35.5276 62.7076Z" fill="#FF3F12"/>
<path fill-rule="evenodd" clip-rule="evenodd" d="M33.5237 63.3835C33.5237 63.7235 33.5237 64.0622 33.5237 64.4022C32.9307 64.3254 31.8484 64.7421 32.1874 63.7246C32.4822 63.4615 32.9412 63.3591 33.5237 63.3847V63.3835Z" fill="#FF3F12"/>
<path fill-rule="evenodd" clip-rule="evenodd" d="M154.525 66.0966C155.25 66.0396 154.675 67.2981 154.858 67.7905C153.977 67.8953 153.997 67.0839 153.855 66.4342C154.244 66.4889 154.45 66.3597 154.525 66.0966Z" fill="#FF3F12"/>
<path fill-rule="evenodd" clip-rule="evenodd" d="M142.49 66.7744C143.266 66.892 144.058 66.9933 143.827 68.1307C142.977 68.0888 142.531 67.6371 142.49 66.7744Z" fill="#FF3F12"/>
<path fill-rule="evenodd" clip-rule="evenodd" d="M144.832 67.4527C145.788 67.3852 146.656 67.4097 146.503 68.4679C145.62 68.4609 144.408 68.7846 144.832 67.4527Z" fill="#FF3F12"/>
<path fill-rule="evenodd" clip-rule="evenodd" d="M139.483 72.1957C139.443 71.8534 140.466 71.7195 140.486 71.5193C140.52 71.1607 139.732 71.2806 139.817 70.8394C139.943 70.1979 140.275 70.3632 140.486 69.4854C141.274 69.4784 141.469 70.0675 142.491 69.8242C142.544 70.773 141.548 70.929 141.155 70.5018C141.015 71.7452 140.541 72.2399 141.825 72.5356C141.408 73.963 140.118 72.5485 139.484 72.1957H139.483Z" fill="#FF3F12"/>
<path fill-rule="evenodd" clip-rule="evenodd" d="M159.874 69.8242C160.618 69.9721 161.064 70.4238 161.209 71.1805C160.262 71.2131 158.999 72.6567 158.535 71.1805C158.288 70.0256 159.767 70.6217 159.873 69.8242H159.874Z" fill="#FF3F12"/>
<path fill-rule="evenodd" clip-rule="evenodd" d="M41.2094 71.8574C42.1228 71.6106 41.884 72.5315 42.5457 72.5362C42.463 72.9041 41.8805 72.7667 41.8782 73.2126C41.2886 73.1311 41.115 72.6317 41.2082 71.8563L41.2094 71.8574Z" fill="#FF3F12"/>
<path fill-rule="evenodd" clip-rule="evenodd" d="M148.509 72.5371C148.985 72.9539 149.141 73.7025 149.176 74.571C148.188 74.5815 148.043 73.0016 148.509 72.5371Z" fill="#FF3F12"/>
<path fill-rule="evenodd" clip-rule="evenodd" d="M39.8734 74.9086C40.6156 75.6933 41.1772 74.7945 42.2129 74.9086C41.8016 75.9611 40.7834 76.3965 39.5391 76.6037C38.7212 75.8051 40.0377 75.9739 39.8734 74.9086Z" fill="#FF3F12"/>
<path fill-rule="evenodd" clip-rule="evenodd" d="M155.862 75.5871C157.118 75.6244 156.092 77.1169 157.533 76.2635C158.053 77.4685 156.397 76.4696 156.529 77.281C156.033 76.9923 156.047 76.1878 155.861 75.5859L155.862 75.5871Z" fill="#FF3F12"/>
<path fill-rule="evenodd" clip-rule="evenodd" d="M138.48 76.9424C140.108 77.5862 137.696 77.8656 138.145 79.315C137.108 79.3488 136.547 78.9006 135.805 78.6375C135.703 78.2265 136.772 77.4686 136.808 78.2987C137.421 77.9029 137.941 77.4127 138.48 76.9424Z" fill="#FF3F12"/>
<path fill-rule="evenodd" clip-rule="evenodd" d="M39.2045 77.2824C40.0853 77.1799 40.302 77.7504 40.2088 78.6375C39.3082 78.6142 38.601 77.8621 39.2045 77.2824Z" fill="#FF3F12"/>
<path fill-rule="evenodd" clip-rule="evenodd" d="M43.8845 80.3301C43.4382 81.294 42.3978 80.0693 41.8794 79.9924C42.4293 78.8969 43.2949 79.9296 43.8845 80.3301Z" fill="#FF3F12"/>
<path fill-rule="evenodd" clip-rule="evenodd" d="M46.2226 79.6536C45.943 80.0459 45.7822 80.5628 45.8894 81.3487C45.4444 81.3487 44.997 81.3487 44.5543 81.3487C44.475 80.1414 45.0331 79.5756 46.2226 79.6536Z" fill="#FF3F12"/>
<path fill-rule="evenodd" clip-rule="evenodd" d="M161.209 79.6543C160.934 80.6113 161.681 80.5321 161.545 81.3494C160.6 81.4029 160.764 80.3295 159.874 80.3307C160.093 79.8767 160.587 79.7009 161.209 79.6543Z" fill="#FF3F12"/>
<path fill-rule="evenodd" clip-rule="evenodd" d="M41.5441 80.6689C42.6683 80.3208 42.0648 81.7248 42.2128 82.364C41.2388 82.4152 41.1969 80.9902 41.5441 80.6689Z" fill="#FF3F12"/>
<path fill-rule="evenodd" clip-rule="evenodd" d="M134.468 82.3643C135.44 82.6588 134.844 82.873 134.803 83.7206C134.104 83.8638 133.919 83.4877 133.465 83.3818C133.503 82.7415 134.57 83.1466 134.468 82.3654V82.3643Z" fill="#FF3F12"/>
<path fill-rule="evenodd" clip-rule="evenodd" d="M142.158 82.3643C143.289 82.7554 142.684 83.0372 144.163 82.703C144.069 83.5878 144.284 84.1618 145.165 84.0594C144.445 85.7917 143.812 84.0372 143.16 83.3818C142.698 82.9184 141.647 83.2269 142.158 82.3654V82.3643Z" fill="#FF3F12"/>
<path fill-rule="evenodd" clip-rule="evenodd" d="M140.821 83.3818C141.826 83.0407 141.412 84.1362 141.488 84.737C142.148 84.1094 143.951 84.234 143.494 85.7545C142.272 85.68 142.212 85.2888 141.154 85.7545C141.12 84.7975 139.894 84.3155 140.821 83.3818Z" fill="#FF3F12"/>
<path fill-rule="evenodd" clip-rule="evenodd" d="M43.2156 84.3975C44.0661 84.4394 44.5124 84.8899 44.5531 85.7538C44.164 86.039 43.656 86.2008 42.8813 86.0914C42.7752 85.3055 42.9337 84.791 43.2156 84.3975Z" fill="#FF3F12"/>
<path fill-rule="evenodd" clip-rule="evenodd" d="M48.8992 84.7373C50.2996 85.529 49.9326 84.9981 51.573 84.7373C51.4087 85.7013 50.5268 85.9376 49.5679 86.0936C49.7299 86.8655 50.2308 87.826 49.5679 88.4674C48.8409 87.3568 48.4599 86.2112 48.8992 84.7373Z" fill="#FF3F12"/>
<path fill-rule="evenodd" clip-rule="evenodd" d="M52.5747 84.7373C53.3891 84.9282 54.2932 85.0284 54.2466 86.0936C53.6139 85.7164 52.7099 85.6174 52.5747 84.7373Z" fill="#FF3F12"/>
<path fill-rule="evenodd" clip-rule="evenodd" d="M134.468 84.7368C135.173 84.4993 134.923 85.1501 135.138 85.4155C135.583 85.9685 136.465 86.1885 136.476 87.1106C135.152 87.5472 135.793 85.9941 134.469 86.4307C134.469 85.8661 134.469 85.3026 134.469 84.7356L134.468 84.7368Z" fill="#FF3F12"/>
<path fill-rule="evenodd" clip-rule="evenodd" d="M139.816 86.0919C140.275 85.2909 142.406 86.7811 141.487 87.4482C140.233 87.7032 140.758 86.1548 139.816 86.0919Z" fill="#FF3F12"/>
<path fill-rule="evenodd" clip-rule="evenodd" d="M52.5748 86.4309C52.8708 86.694 53.3298 86.7964 53.9112 86.7708C53.7632 88.2819 53.2063 87.2737 52.2405 87.786C52.0983 87.0781 52.47 86.8884 52.5748 86.4297V86.4309Z" fill="#FF3F12"/>
<path fill-rule="evenodd" clip-rule="evenodd" d="M47.8949 86.771C49.2685 86.615 47.7598 87.494 48.2293 88.4661C47.1644 88.7548 47.1947 87.9305 46.5586 87.7862C46.7473 87.0818 47.0805 87.0679 47.5606 87.4474C47.8856 87.4381 47.8204 87.0341 47.8949 86.771Z" fill="#FF3F12"/>
<path fill-rule="evenodd" clip-rule="evenodd" d="M139.816 87.4485C140.431 87.7989 139.664 88.1074 139.816 88.4671C139.837 88.5137 140.482 88.9631 140.485 88.8048C140.461 89.6022 138.942 90.2065 139.816 91.1786C139.48 92.1309 138.397 91.0843 137.811 91.1786C138.114 90.5779 138.559 90.1285 139.148 89.8211C139.004 89.2902 138.097 89.5324 138.479 88.4671C138.375 87.8827 137.32 88.9072 137.476 87.4485C138.445 86.9048 138.342 88.0748 139.815 87.4485H139.816Z" fill="#FF3F12"/>
<path fill-rule="evenodd" clip-rule="evenodd" d="M132.13 87.4481C132.734 88.029 132.027 88.7811 131.125 88.8044C131.03 87.9196 131.248 87.3468 132.13 87.4481Z" fill="#FF3F12"/>
<path fill-rule="evenodd" clip-rule="evenodd" d="M143.829 87.4483C144.711 87.3458 144.691 88.155 144.832 88.8046C143.635 89.0817 143.173 88.0828 143.829 87.4483Z" fill="#FF3F12"/>
<path fill-rule="evenodd" clip-rule="evenodd" d="M135.805 89.4826C135.414 89.4267 135.525 88.8644 135.47 88.4674C134.742 88.4057 134.409 88.7433 134.468 89.4826C132.304 87.7106 137.17 87.2962 135.805 89.4826Z" fill="#FF3F12"/>
<path fill-rule="evenodd" clip-rule="evenodd" d="M49.5677 88.8035C50.84 88.5509 50.2889 90.998 49.2322 90.4986C49.1262 89.7128 49.2858 89.1982 49.5677 88.8035Z" fill="#FF3F12"/>
<path fill-rule="evenodd" clip-rule="evenodd" d="M141.488 88.8037C141.935 88.8037 142.38 88.8037 142.826 88.8037C142.649 89.0761 142.477 89.3532 142.491 89.8201C142.158 89.8201 141.823 89.8201 141.488 89.8201C141.488 89.4813 141.488 89.1425 141.488 88.8037Z" fill="#FF3F12"/>
<path fill-rule="evenodd" clip-rule="evenodd" d="M133.801 90.1589C134.301 89.0401 134.617 90.8645 135.471 90.4989C135.821 91.6701 133.943 92.3023 135.137 93.2092C134.415 94.6703 133.916 91.3488 133.466 92.5328C132.15 91.8214 135.171 90.925 133.801 90.1589Z" fill="#FF3F12"/>
<path fill-rule="evenodd" clip-rule="evenodd" d="M151.182 89.8213C151.622 89.9412 151.709 90.4174 152.185 90.4989C152.105 91.0949 151.61 91.2707 150.848 91.1788C150.806 90.5687 151.257 90.4616 151.184 89.8213H151.182Z" fill="#FF3F12"/>
<path fill-rule="evenodd" clip-rule="evenodd" d="M48.2289 90.8375C48.8277 90.742 48.9151 91.1576 48.5644 91.1774C48.8638 91.7758 49.9206 91.6082 49.5675 92.8713C48.6984 92.4383 48.5586 92.1274 47.5613 92.5326C47.079 91.2519 48.4805 91.8806 48.23 90.8375H48.2289Z" fill="#FF3F12"/>
<path fill-rule="evenodd" clip-rule="evenodd" d="M51.906 91.5157C53.6338 91.2526 53.3739 93.368 52.5747 93.8884C52.0586 93.3948 51.8733 92.5658 51.906 91.5157Z" fill="#FF3F12"/>
<path fill-rule="evenodd" clip-rule="evenodd" d="M135.805 94.2275C135.5 94.8201 135.184 95.4046 134.134 95.2439C134.086 94.2904 134.953 94.266 135.805 94.2275Z" fill="#FF3F12"/>
<path fill-rule="evenodd" clip-rule="evenodd" d="M63.6059 94.5654C64.1826 94.7703 63.5791 96.1732 64.2734 96.2605C63.5721 97.4841 63.1946 95.5864 62.6039 95.5841C61.9585 95.7192 62.5736 97.1348 61.2676 96.6005C61.3922 95.2593 62.3196 94.7307 63.607 94.5666L63.6059 94.5654Z" fill="#FF3F12"/>
<path fill-rule="evenodd" clip-rule="evenodd" d="M57.9238 94.9043C58.6357 95.2198 58.3817 97.3689 57.2551 96.9382C57.1665 95.9463 58.0112 95.8974 57.9238 94.9043Z" fill="#FF3F12"/>
<path fill-rule="evenodd" clip-rule="evenodd" d="M128.451 95.2441C128.421 96.1685 129.009 95.9264 128.451 96.5993C128.183 96.4212 127.908 96.2454 127.448 96.2605C127.448 96.0346 127.448 95.8088 127.448 95.5841C127.718 95.4048 127.991 95.229 128.451 95.2453V95.2441Z" fill="#FF3F12"/>
<path fill-rule="evenodd" clip-rule="evenodd" d="M137.811 95.5829C137.696 96.3687 137.594 97.1697 136.475 96.938C136.319 95.8763 136.765 95.4269 137.811 95.5829Z" fill="#FF3F12"/>
<path fill-rule="evenodd" clip-rule="evenodd" d="M130.792 96.5988C131.834 96.7851 131.304 98.5652 131.795 99.3103C131.082 99.4686 131.159 98.826 131.125 98.2927C130.68 98.2927 130.234 98.2927 129.789 98.2927C129.799 97.9633 130.199 98.0308 130.458 97.954C130.911 97.848 130.736 97.1064 130.793 96.5977L130.792 96.5988Z" fill="#FF3F12"/>
<path fill-rule="evenodd" clip-rule="evenodd" d="M65.613 96.9375C67.6321 97.3822 64.9967 98.6931 66.615 99.3102C66.5101 99.7689 65.7785 99.5907 65.2775 99.6489C66.0732 98.9877 64.6658 97.7524 65.613 96.9375Z" fill="#FF3F12"/>
<path fill-rule="evenodd" clip-rule="evenodd" d="M62.2693 97.277C63.3587 97.1874 63.8771 97.6787 63.94 98.631C63.6418 98.3691 63.1862 98.2666 62.6037 98.2934C62.2449 99.5589 63.4332 99.2585 63.2713 100.326C62.4488 100.373 61.6623 100.377 61.2674 99.9885C60.7058 98.1758 62.267 98.5192 62.2705 97.277H62.2693Z" fill="#FF3F12"/>
<path fill-rule="evenodd" clip-rule="evenodd" d="M145.165 99.9893C146.194 100.227 145.808 100.227 146.837 99.9893C146.836 101.021 144.875 101.391 145.165 99.9893Z" fill="#FF3F12"/>
<path fill-rule="evenodd" clip-rule="evenodd" d="M51.573 101.682C53.1796 102.126 52.3012 104.021 50.9031 104.055C50.5734 102.703 51.9039 103.034 51.573 101.682Z" fill="#FF3F12"/>
<path fill-rule="evenodd" clip-rule="evenodd" d="M81.9902 106.089C80.9149 106.029 79.9292 104.135 78.9809 105.072C78.1525 104.669 78.9739 102.592 77.6445 102.701C77.7878 101.549 79.8244 101.912 79.3152 103.377C80.7867 102.734 81.6104 104.612 81.9902 106.09V106.089Z" fill="#FF3F12"/>
<path fill-rule="evenodd" clip-rule="evenodd" d="M109.064 102.021C108.97 102.908 109.188 103.478 110.069 103.377C109.975 104.074 109.175 104.055 108.732 104.395C109.232 105.122 109.548 104.152 110.403 104.733C110.631 105.87 109.841 105.972 109.066 106.09C109.359 105.001 108.2 105.387 108.062 104.733C107.793 104.913 107.521 105.087 107.06 105.072C106.895 106.137 107.79 106.398 107.06 107.105C105.895 106.704 106.871 104.135 104.72 104.733C103.963 105.094 105.681 105.761 105.39 106.767C104.445 107.047 104.523 106.289 103.718 106.428C104.639 105.525 103.473 105.24 103.382 104.395C104.459 104.469 104.797 103.796 106.056 104.057C107.429 103.412 106.421 101.766 109.064 102.022V102.021Z" fill="#FF3F12"/>
<path fill-rule="evenodd" clip-rule="evenodd" d="M124.107 102.701C124.646 102.604 124.681 103.02 125.11 103.039C124.818 103.533 124.845 104.351 123.773 104.057C124.033 103.755 124.133 103.291 124.108 102.701H124.107Z" fill="#FF3F12"/>
<path fill-rule="evenodd" clip-rule="evenodd" d="M76.9747 103.377C77.5643 103.458 77.7379 103.961 77.6446 104.733C77.3103 104.733 76.9747 104.733 76.6415 104.733C76.5006 104.024 76.8699 103.836 76.9747 103.377Z" fill="#FF3F12"/>
<path fill-rule="evenodd" clip-rule="evenodd" d="M128.119 103.716C129.063 103.436 128.985 104.193 129.789 104.056C130.043 105.583 127.557 105.324 128.119 103.716Z" fill="#FF3F12"/>
<path fill-rule="evenodd" clip-rule="evenodd" d="M132.465 103.716C133.258 104.435 132.649 106.596 131.46 106.428C130.322 105.102 132.319 104.788 132.465 103.716Z" fill="#FF3F12"/>
<path fill-rule="evenodd" clip-rule="evenodd" d="M111.07 105.411C111.405 105.411 111.739 105.411 112.072 105.411C112.126 106.483 111.184 106.544 111.403 107.783C110.527 107.332 110.765 106.278 111.069 105.411H111.07Z" fill="#FF3F12"/>
<path fill-rule="evenodd" clip-rule="evenodd" d="M75.9742 106.088C76.0942 107.262 76.7583 108.291 74.9711 108.122C75.4546 106.839 74.053 107.47 74.3012 106.427C75.1063 106.566 75.027 105.808 75.9731 106.088H75.9742Z" fill="#FF3F12"/>
<path fill-rule="evenodd" clip-rule="evenodd" d="M116.085 106.767C117.207 106.418 116.605 107.821 116.753 108.462C115.887 108.025 115.701 107.76 116.085 106.767Z" fill="#FF3F12"/>
<path fill-rule="evenodd" clip-rule="evenodd" d="M132.798 106.768C133.573 106.658 134.082 106.821 134.469 107.105C134.506 108.52 133.815 108.952 132.798 108.463C132.798 107.897 132.798 107.331 132.798 106.768Z" fill="#FF3F12"/>
<path fill-rule="evenodd" clip-rule="evenodd" d="M119.427 107.444C120.808 107.863 119.302 108.429 119.093 109.139C118.612 109.061 118.977 108.128 118.424 108.122C118.5 107.634 119.422 108.002 119.427 107.444Z" fill="#FF3F12"/>
<path fill-rule="evenodd" clip-rule="evenodd" d="M112.074 107.782C112.338 108.644 114.122 107.967 114.08 109.14C112.837 108.44 113.204 109.624 111.739 109.477C111.368 108.413 111.582 108.582 112.074 107.782Z" fill="#FF3F12"/>
<path fill-rule="evenodd" clip-rule="evenodd" d="M89.0101 108.122C89.3701 108.999 90.6797 108.913 90.3465 110.494C89.7896 110.494 89.2327 110.494 88.6758 110.494C89.2898 110.015 88.1515 108.847 89.0101 108.122Z" fill="#FF3F12"/>
<path fill-rule="evenodd" clip-rule="evenodd" d="M107.395 108.462C107.188 109.269 105.936 109.019 106.391 110.495C106.123 110.316 105.848 110.142 105.389 110.156C105.597 109.124 106.131 108.424 107.395 108.462Z" fill="#FF3F12"/>
<path fill-rule="evenodd" clip-rule="evenodd" d="M105.054 110.155C105.785 111.907 104.49 111.86 104.719 113.884C103.63 113.859 104.007 112.347 103.718 111.511C103.67 110.429 102.481 110.505 102.38 109.477C103.743 109.225 103.531 110.57 105.055 110.155H105.054Z" fill="#FF3F12"/>
<path fill-rule="evenodd" clip-rule="evenodd" d="M77.6448 111.512C78.6503 111.171 78.2367 112.267 78.3136 112.867C77.8685 112.867 77.4235 112.867 76.9761 112.867C76.9807 112.194 77.8895 112.436 77.646 111.512H77.6448Z" fill="#FF3F12"/>
<path fill-rule="evenodd" clip-rule="evenodd" d="M124.106 113.205C123.695 114.234 122.956 112.837 122.101 113.205C122.369 111.954 123.477 112.924 124.106 113.205Z" fill="#FF3F12"/>
<path fill-rule="evenodd" clip-rule="evenodd" d="M138.146 112.866C139.04 112.993 139.713 114.668 138.146 114.561C138.146 113.998 138.146 113.433 138.146 112.866Z" fill="#FF3F12"/>
<path fill-rule="evenodd" clip-rule="evenodd" d="M114.413 113.205C115.28 113.46 115.781 115.107 115.083 115.915C114.579 115.113 114.575 114.665 113.411 115.239C113.893 114.712 114.115 113.919 114.413 113.205Z" fill="#FF3F12"/>
<path fill-rule="evenodd" clip-rule="evenodd" d="M127.115 113.205C128.182 112.915 128.148 113.738 128.785 113.883C128.825 115.39 128.5 116.53 126.781 116.254C126.011 115.375 126.791 114.012 127.115 113.204V113.205Z" fill="#FF3F12"/>
<path fill-rule="evenodd" clip-rule="evenodd" d="M108.547 114.654C110.161 115.071 110.722 116.728 110.219 118.382C109.132 117.997 108.509 116.495 108.547 114.654Z" fill="#FF3F12"/>
<path fill-rule="evenodd" clip-rule="evenodd" d="M155.614 116.009C156.527 116.566 157.596 116.587 158.246 118.052C156.953 118.818 156.486 116.71 155.614 116.009Z" fill="#FF3F12"/>
<path fill-rule="evenodd" clip-rule="evenodd" d="M38.5355 52.8784C37.7328 53.6712 37.4008 51.1088 36.5293 50.8457C35.447 51.9657 37.381 52.9029 37.1992 54.2336C37.2843 54.9379 38.6684 54.3267 38.8711 54.9111C38.913 55.5188 38.4598 55.6271 38.5355 56.2663C37.854 56.8577 37.8796 56.0136 37.1981 56.6062C36.3196 56.5061 36.9359 57.9218 35.8605 57.6237C35.0811 56.0381 34.9774 55.1405 36.1961 54.2336C36.1425 53.8366 35.5868 53.9483 35.1918 53.8948C34.8889 52.1694 33.9289 51.1076 32.8535 50.167C33.69 49.7711 34.1386 48.9841 35.5273 49.1494C35.9153 49.6501 35.9153 50.0028 35.5273 50.5058C35.4656 50.7945 35.6578 50.8247 35.8617 50.8445C36.1868 50.8341 36.1227 50.4289 36.1973 50.167C37.6466 49.2088 37.868 51.9599 38.5367 52.8773L38.5355 52.8784Z" fill="#FF3F12"/>
<path fill-rule="evenodd" clip-rule="evenodd" d="M111.739 7.80328C110.921 8.60193 112.238 8.43312 112.074 9.49838C112.414 9.27718 112.42 8.71719 113.077 8.8208C112.9 9.09323 112.728 9.37031 112.742 9.83716C113.965 10.1259 114.533 8.27712 115.083 9.83716C115.883 9.97221 114.897 8.29342 116.085 8.8208C116 10.091 115.56 10.999 114.747 11.5311C115.521 12.2843 114.634 12.8525 114.747 13.9038C115.607 13.1808 116.178 10.7837 117.757 11.8699C117.255 12.2657 116.939 12.849 116.086 12.8862C116.281 13.9294 117.511 13.927 117.757 14.9201C118.073 14.118 117.885 13.4066 118.426 11.8699C119.087 12.0981 119.896 12.9968 118.76 13.2262C118.81 13.8537 119.892 13.4346 120.096 13.9038C119.768 14.4509 119.206 14.6838 118.76 14.2414C118.767 15.5919 119.079 16.6292 119.764 17.2916C119.545 17.6374 118.995 17.642 119.094 18.3091C119.788 19.6305 120.456 16.9365 120.766 18.6479C121.091 18.6374 121.025 18.2323 121.101 17.9715C122.129 18.4221 120.477 19.4768 121.434 20.0042C122.68 20.364 121.963 18.7329 123.104 18.9879C123.104 19.4396 123.104 19.8913 123.104 20.343C122.357 20.7144 121.431 20.9042 120.766 21.3594C121.565 21.3303 121.835 22.6935 122.103 22.7157C123.072 22.7913 122.32 20.9763 123.439 21.6993C124.193 21.4467 123.569 19.797 123.773 18.9879C124.053 17.9098 124.215 19.5886 124.108 20.0042C124.444 20.6795 124.943 21.1917 125.445 21.6993C126.226 21.5945 126.825 21.0357 127.449 21.6993C127.148 23.8508 126.129 21.7191 124.775 22.0381C124.717 22.9997 125.904 22.6982 125.445 24.0708C126.617 23.803 126.543 23.1196 127.449 24.0708C127.374 24.6145 126.573 24.2431 126.113 24.4096C125.905 24.4853 125.494 25.0813 125.445 25.0895C125.197 25.1267 124.9 24.618 124.44 24.7507C123.741 24.9498 124.35 25.6716 123.103 25.0895C123.28 25.3608 123.454 25.6378 123.439 26.1047C124.27 26.0686 124.475 25.469 125.111 26.1047C126.209 26.0896 125.911 24.6564 127.116 24.7495C126.494 25.9405 127.371 25.8637 127.786 26.7823C128.642 26.7473 128.322 25.5203 128.788 25.0883C129.91 25.3968 128.954 25.717 129.123 26.7823C129.248 27.4202 130.899 25.4469 130.794 27.4598C129.75 27.4435 129.14 27.9255 128.788 27.7986C128.155 28.1479 128.712 30.4367 127.45 29.1549C128.071 31.0572 129.91 27.8603 130.124 30.1724C131.775 29.9023 129.387 27.6345 131.462 27.7986C131.529 29.7475 130.966 30.715 131.796 32.2052C131.689 32.998 130.76 32.9631 130.46 33.5615C131.35 34.7641 131.945 32.8338 132.131 32.2052C133.943 33.246 133.972 29.4122 134.135 31.8664C134.806 30.8267 135.69 32.1085 135.806 30.5101C136.288 30.5857 135.923 31.5206 136.476 31.5253C134.986 32.3484 134.571 32.3239 132.799 32.5428C132.91 33.3356 133.201 33.9445 133.467 34.5767C135.06 34.0632 134.298 34.8502 135.806 34.9154C135.638 35.7618 134.917 36.0471 134.804 36.9493C134.947 37.4802 135.856 37.238 135.473 38.3045C134.3 38.0367 134.375 37.351 133.468 38.3045C133.654 39.6084 134.761 38.0437 135.473 38.982C134.967 40.7353 133.306 38.5548 132.799 39.3208C132.35 39.5443 132.177 40.045 132.131 40.6783C131.832 40.9391 131.375 41.0427 130.794 41.0159C130.855 41.9706 132.383 41.4385 132.131 42.711C132.833 43.2198 132.784 41.9089 133.133 41.6946C133.208 41.6492 134.37 42.1277 134.135 40.6794C135.052 40.6841 134.93 42.2779 134.47 42.7122C136.363 43.4852 135.344 41.0473 134.804 40.0007C136.852 39.8028 135.975 37.7969 135.806 36.2729C136.5 37.0064 136.945 36.2915 137.144 35.5942C137.4 36.3905 136.913 38.6642 139.149 38.3068C139.117 39.1683 137.844 39.1683 137.812 38.3068C137.401 38.9064 137.162 39.6806 136.476 40.0019C136.622 40.5048 136.904 39.868 137.478 40.0019C135.831 40.7109 137.247 42.1627 136.808 43.0533C137.438 43.4654 138.288 42.959 138.146 44.7484C137.82 44.7391 137.887 44.3327 137.811 44.0696C137.455 44.7262 137.173 45.4574 135.805 45.086C135.812 46.2094 137.695 45.4306 138.146 46.1047C137.953 46.9254 135.983 45.944 136.14 47.121C135.127 47.1327 135.817 45.4143 134.803 45.4259C133.774 45.8509 132.959 46.4924 132.798 47.7986C133.803 48.1397 133.391 47.0442 133.465 46.4423C135.29 46.0604 135.397 47.4214 136.475 47.7986C136.206 49.1875 135.099 47.6228 134.469 48.4762C134.533 48.7498 134.805 48.8138 134.803 49.1537C135.128 49.1456 135.063 48.7393 135.138 48.4762C135.531 48.5309 135.42 49.0932 135.472 49.4937C136.371 49.7277 136.117 48.7928 136.476 48.4762C137.139 48.4797 136.9 49.4006 137.812 49.1537C138.056 50.0793 137.148 49.836 137.144 50.51C137.402 51.2633 137.845 51.8314 137.812 52.8815C138.455 52.7453 138.076 51.5683 139.149 51.8664C139.383 53.3472 138.581 53.7745 138.814 55.2554C140.226 55.0446 140.043 54.5021 139.816 53.2215C140.958 52.9665 140.241 54.5988 141.487 54.2379C140.889 54.8735 140.294 55.5127 139.816 56.2706C139.46 57.5384 140.646 57.2369 140.485 58.3044C140.012 57.6536 138.862 57.6909 138.146 57.2892C137.826 57.9005 138.797 58.1252 138.814 58.3044C138.861 58.7678 137.316 59.8342 138.814 60.3395C138.792 61.2522 138.05 61.9682 137.478 61.3547C137.633 62.1079 136.813 62.1533 137.478 63.0498C137.57 63.1743 138.09 63.2733 138.147 63.3874C138.584 64.2745 138.022 65.086 139.483 64.4061C139.39 65.1779 139.563 65.6809 140.152 65.7624C139.631 66.6984 139.212 64.7134 137.812 65.4236C137.812 65.6495 137.812 65.8741 137.812 66.1012C137.915 66.561 138.649 66.3817 139.149 66.4388C139.595 67.0931 139.053 67.5844 139.149 67.7951C139.362 68.2608 139.866 67.6752 140.485 68.4727C140.226 68.7742 140.127 69.2387 140.151 69.829C138.098 68.8161 140.027 70.6102 138.146 70.5065C137.986 71.5741 138.621 71.8314 138.814 72.5404C139.485 72.424 139.86 72.6091 139.816 73.2168C138.632 73.1039 138.996 72.2855 137.811 72.8792C137.533 71.9665 137.377 70.3913 138.146 69.1491C137.507 68.6962 136.95 69.248 136.475 68.1339C135.882 68.4366 136.047 69.51 134.803 69.1491C135.791 69.7323 136.569 70.5228 137.144 71.5229C137.067 72.0107 136.145 71.6405 136.142 72.1993C135.616 72.0549 135.856 71.134 134.804 71.5229C135.084 71.1282 135.247 70.6136 135.14 69.8278C133.187 70.0711 134.995 72.0701 134.47 72.8792C134.611 73.6406 136.243 72.8862 136.476 73.5556C136.076 73.693 135.331 74.0702 134.47 74.5743C134.374 75.7304 136.758 75.2635 135.806 76.2682C136.78 75.9748 136.184 75.7606 136.142 74.9119C136.528 74.9678 136.736 74.8374 136.809 74.5743C137.294 75.1005 137.921 75.4812 138.147 76.2682C138.586 75.834 139.378 75.834 139.817 76.2682C140.613 76.1693 139.446 75.352 139.149 75.2507C139.326 74.3019 140.759 74.6244 141.488 74.2355C140.642 75.2623 143.18 75.0295 142.491 76.9458C140.97 76.55 139.975 77.0657 139.149 76.9458C139.103 76.94 139.198 76.2845 139.149 76.2682C138.75 76.132 137.712 77.0785 137.478 76.2682C136.442 76.3485 136.179 77.2112 135.472 77.6245C134.855 77.5733 135.267 76.4766 134.803 76.2682C134.379 76.3451 134.366 77.2799 134.803 77.2857C134.946 77.6827 134.203 77.4627 134.134 77.6234C134.11 77.6839 134.21 79.8773 134.469 80.3336C134.664 80.6794 135.114 80.8261 135.47 81.0112C135.42 81.8541 134.338 81.1102 134.134 81.0112C133.649 81.4245 133.687 82.3652 132.798 82.3675C132.67 84.3257 134 84.6145 133.465 87.1128C133.02 87.1128 132.575 87.1128 132.13 87.1128C132.324 85.2105 132.041 84.9323 132.465 83.3839C131.373 83.2151 131.755 85.0685 130.793 84.0614C130.738 85.0208 130.18 85.4736 130.123 86.4329C128.884 86.1931 128.691 87.0127 127.449 86.7729C127.314 87.589 128.06 87.5087 127.785 88.468C128.126 88.1362 128.46 87.7974 128.787 87.4493C129.057 87.6286 129.329 87.8032 129.788 87.7881C129.946 88.5111 129.311 88.4331 128.787 88.468C128.651 89.2841 129.398 89.2038 129.122 90.1596C128.347 90.269 127.838 90.1072 127.45 89.822C127.158 90.9105 128.317 90.524 128.453 91.1794C128.468 92.0444 128.206 91.5916 127.786 91.5171C127.814 91.9979 127.84 92.4775 127.45 92.5334C127.824 93.0596 128.537 93.2389 128.453 94.2285C130.525 94.5184 130.506 92.6917 132.131 92.5334C131.139 92.9968 131.76 95.0947 131.126 95.9224C130.065 95.8712 129.656 95.1541 128.452 95.2449C128.127 93.6429 126.677 93.9538 125.445 94.5661C125.621 94.8397 125.793 95.1168 125.778 95.5836C124.737 95.1727 124.339 95.7641 123.439 94.9049C123.536 93.6476 125.207 93.9864 125.111 92.5334C124.245 91.6777 122.964 93.2773 122.103 93.5509C122.283 94.6092 122.898 95.2286 123.773 95.5848C123.396 96.3322 122.063 96.1099 121.767 96.94C120.822 96.9935 120.989 95.9213 120.096 95.9236C119.033 95.976 118.625 96.6931 117.422 96.6012C117.422 96.2624 117.422 95.9236 117.422 95.5848C116.814 95.9841 117.16 97.3509 116.754 97.9563C115.914 97.6443 114.461 97.3055 114.413 98.6327C114.516 99.0938 115.251 98.9156 115.751 98.9715C115.851 99.8656 115.287 100.084 114.413 99.9902C113.425 100.344 113.432 101.706 111.739 101.346C111.496 100.421 112.405 100.663 112.408 99.9902C111.962 99.9902 111.517 99.9902 111.072 99.9902C110.829 101.024 111.413 101.224 111.406 102.023C110.526 101.923 111.144 103.337 110.07 103.04C110.385 101.728 108.766 101.645 109.735 100.668C108.04 101.395 106.972 100.748 105.055 101.348C104.927 102.493 106.534 101.88 106.057 103.38C104.984 103.68 105.599 102.264 104.72 102.365C104.201 102.234 104.606 103.226 104.388 103.38C103.009 104.358 98.4342 102.487 98.7057 105.075C97.3367 104.583 98.8525 103.276 97.7002 102.704C96.1926 103.27 96.5223 103.597 96.3627 105.414C95.5926 105.519 95.9922 104.434 95.3608 104.397C94.3367 105.241 95.9363 106.277 97.0326 106.092C98.0288 106.167 98.1697 104.84 99.0389 105.753C99.8579 105.116 100.508 104.305 102.045 104.397C102.045 104.961 102.045 105.527 102.045 106.092C101.364 106.772 101.389 105.943 100.708 105.753C100.387 106.85 98.9713 106.835 99.7064 108.126C98.9934 108.283 99.0703 107.64 99.0389 107.107C98.6008 107.056 98.1371 107.175 97.7002 107.107C97.134 107.021 96.9068 106.464 96.6971 106.431C95.9701 106.308 95.299 107.114 94.3588 106.431C93.8625 106.577 94.4916 106.864 94.3588 107.447C93.9126 107.447 93.4675 107.447 93.0225 107.447C93.4407 106.826 93.2776 105.278 92.6869 106.091C91.8609 105.555 93.0935 104.269 94.0244 104.396C94.4543 103.06 94.5627 103.359 94.6932 102.023C95.5215 102.072 96.3138 102.087 96.3627 101.346C96.1845 100.647 94.7829 101.265 95.6951 100.328C94.7957 100.094 95.0485 101.03 94.6932 101.346C94.1968 100.953 93.8508 100.953 93.3568 101.346C93.3603 102.019 94.2679 101.777 94.0256 102.703C92.6986 102.373 92.9864 103.683 92.6881 104.397C91.2632 103.964 90.6877 104.774 89.6799 104.059C89.0123 104.399 89.1521 105.556 88.008 105.414C87.9533 106.601 89.1836 106.48 89.6799 107.108C88.7688 108.227 87.9579 106.391 87.0049 106.432C87.0096 105.759 87.9183 106 87.6748 105.075C86.3606 104.761 86.8301 106.252 85.333 105.753C85.8049 105.1 86.2173 104.39 86.3385 103.379C86.9676 103.758 87.874 103.855 88.0092 104.736C89.0811 104.756 88.1245 103.498 88.6791 102.703C89.0438 102.178 90.1319 102.699 89.3467 101.346C89.8279 101.726 90.1634 101.711 90.351 101.008C91.4706 101.418 91.7164 103.086 91.3541 104.059C91.5766 104.059 91.8003 104.059 92.024 104.059C92.6054 103.548 91.6815 102.596 92.6916 102.024C92.0997 101.607 91.3378 101.364 91.0197 100.668C91.3995 100.26 91.9762 100.055 91.6896 98.9727C90.7086 100.013 88.9261 100.239 88.6814 102.023C87.5 101.841 86.9595 102.31 86.6752 103.04C85.9097 102.824 84.6585 102.369 84.0014 103.04C84.2915 104.027 84.5012 103.422 85.3365 103.379C84.9521 103.781 84.9602 104.578 85.0033 105.413C83.8243 105.367 83.5097 104.442 82.3295 104.396C82.0988 103.484 83.0204 103.74 83.3326 103.378C81.9835 103.505 81.9508 100.281 82.6627 102.022C83.0553 101.968 82.9458 101.405 82.9982 101.007C81.9718 99.514 81.0258 101.809 79.6557 100.667C79.2724 100.788 78.8075 101.264 79.3213 101.346C78.889 102.192 77.7007 100.987 77.985 99.9902C77.0902 99.6793 77.5865 100.674 77.3162 101.007C77.1146 101.251 76.2106 101.081 76.6475 102.363C74.9313 102.279 76.2199 100.539 74.9768 100.328C74.4956 100.247 73.9375 100.996 73.9736 101.007C73.4004 100.834 73.2548 100.11 72.635 99.9902C71.9115 99.8482 71.6412 100.674 70.6311 100.328C70.7802 98.897 72.8447 99.4081 73.9736 98.9715C73.729 98.202 72.967 97.9586 72.3018 97.6164C71.0691 97.6094 70.8245 98.6036 70.2967 99.3115C69.5662 99.2614 69.5778 98.4581 69.6279 97.6164C68.6551 97.9109 69.2516 98.124 69.2936 98.9715C68.1052 99.4989 69.0897 97.8213 68.2904 97.9563C69.5207 97.5605 69.226 96.9062 68.958 95.5848C70.1149 95.8503 70.3701 95.2076 70.9643 94.9061C70.9305 94.253 69.7188 95.4335 69.2936 94.5673C68.9009 94.622 69.0128 95.1855 68.958 95.5848C67.7941 95.7478 67.7918 94.7349 67.2873 94.2285C66.1153 94.3216 68.1273 95.4905 66.9541 95.5848C66.9774 96.4545 68.5106 96.068 67.6217 96.94C66.7281 96.9271 66.6197 94.9422 65.951 96.6012C64.5075 95.5033 64.7277 94.7012 64.6135 92.5346C63.4053 92.2435 62.3451 91.1224 61.6041 92.1958C61.8884 92.6987 62.4465 92.9234 63.2748 92.8734C63.5498 94.1691 61.6635 93.2727 61.9397 94.5673C61.1591 94.5673 60.3796 94.5673 59.599 94.5673C59.5501 93.502 60.4554 93.4031 61.2709 93.211C60.6546 91.6917 58.9233 91.2947 58.5959 89.4832C56.4091 89.6566 59.1889 92.7756 56.5908 92.5334C56.3858 91.7231 57.0091 90.0758 56.2576 89.822C56.1539 89.0408 57.2223 89.4459 57.2596 88.8056C56.74 88.2037 56.3194 87.5005 54.919 87.7881C55.0832 86.1885 55.2265 84.5667 54.2526 83.3827C53.3054 83.7355 52.8591 83.7366 51.9119 83.3827C51.9119 82.8192 51.9119 82.2534 51.9119 81.6876C50.9065 81.3465 51.3201 82.4432 51.2432 83.0439C49.3546 81.8646 49.7903 84.8135 48.2338 83.7215C49.8917 83.0416 48.6428 81.9309 48.2338 80.6701C47.4299 80.5327 47.508 81.2895 46.5631 81.0089C47.2575 79.3965 47.9577 79.1927 46.8963 77.6199C46.2975 77.5756 46.1926 78.0343 45.56 77.9587C45.9747 76.862 44.4788 77.6979 44.8901 76.6023C45.4819 75.9667 45.8676 77.0063 46.5619 76.2636C46.3487 75.0598 44.685 76.3637 43.2194 75.9248C43.3102 75.2262 44.699 75.8444 44.5569 74.9073C44.5056 74.1668 43.7122 74.1808 42.885 74.2309C44.3343 73.3018 42.3794 72.5579 43.2194 71.5194C41.8225 71.8046 41.6395 70.8605 40.5455 70.8395C40.5945 70.0013 40.6061 69.1968 39.8756 69.1444C39.9176 68.3981 41.2935 69.0012 41.8819 68.8068C42.5809 68.7125 41.396 67.901 42.2151 67.4517C40.4826 67.6775 41.6873 68.3551 39.8756 67.1117C39.6333 66.0756 40.4523 66.1163 40.2112 65.0778C39.4457 64.6086 38.4403 64.3874 37.5362 64.0615C38.1222 63.0591 39.3164 64.2571 40.2112 64.0615C40.2578 63.1091 39.3921 63.0835 38.5393 63.0451C39.1463 62.1638 38.3948 62.0218 38.8748 61.0112C37.93 60.96 38.0348 61.9705 37.5362 62.3675C36.8301 62.0311 38.4007 60.0834 36.1998 60.6725C36.4422 59.6363 35.6231 59.6759 35.8643 58.6397C36.2569 58.1321 37.2542 58.2404 37.2018 57.2834C38.149 57.2252 37.8554 58.4302 39.2069 57.9598C40.1424 57.5244 38.1548 57.259 38.5393 56.2647C39.0286 55.7793 39.5983 56.0063 39.5413 56.9435C40.7774 56.4103 38.8073 54.3624 38.8737 52.8757C39.5366 52.3122 39.2966 52.906 40.21 52.8757C39.7743 51.8477 38.0954 52.0829 38.5381 50.1654C38.7921 49.4786 37.4733 49.9163 37.2006 49.4879C37.0818 49.3004 38.3785 47.5518 36.8651 47.7928C37.0958 46.731 37.7587 47.3504 38.537 47.4552C38.7665 46.5436 37.8461 46.7997 37.5338 46.4376C38.029 46.0371 38.0546 45.1582 38.537 44.7437C38.2539 43.7495 37.4616 44.9474 36.8651 44.7437C36.9198 44.3502 36.7917 44.1395 36.5307 44.065C36.476 43.3304 37.7168 43.9113 38.2026 43.7262C38.4076 42.0486 37.4453 41.5584 37.1995 40.3383C37.5257 40.329 37.4581 39.9239 37.5338 39.6608C38.4251 39.6608 39.3152 39.6608 40.2088 39.6608C39.9875 38.4151 38.975 37.9727 38.2026 37.2881C38.7001 36.132 38.1036 34.5999 37.8671 33.2215C38.4612 32.9188 38.7175 32.2762 39.8733 32.5439C38.8993 34.0213 41.0454 33.9352 41.8795 33.2215C41.7432 32.4543 39.9199 33.3996 40.5432 31.8664C39.4888 32.2447 39.7859 31.8966 38.537 31.8664C39.4376 30.9839 38.1269 30.8442 38.2026 29.8313C39.1009 29.5985 38.848 30.531 39.2045 30.8477C40.2543 31.02 40.5723 30.049 40.8764 31.1865C41.2469 30.0933 42.0636 29.453 41.8807 27.7974C43.0831 27.8883 43.492 27.1711 44.5557 27.1199C44.5079 26.4889 44.3343 25.9871 43.8858 25.7636C44.3984 25.2373 44.2411 23.9975 44.5557 23.3921C44.6023 23.2966 45.172 23.4864 45.2233 23.3921C45.5285 22.8309 45.4749 20.9659 46.5608 21.3582C46.0598 22.6994 45.1965 23.3513 45.892 25.0872C46.4617 25.2117 46.5223 24.8229 46.5608 24.4073C47 24.5283 47.0874 25.0057 47.5627 25.0872C47.6187 24.2373 47.0501 24.0242 46.5608 23.7309C47.3262 23.1674 47.8086 22.8437 47.2284 21.697C47.8004 21.7121 48.094 21.4443 48.2315 21.0194C49.2637 21.1009 48.7965 22.7064 50.2377 22.3734C48.616 21.6295 49.4618 20.4676 48.5659 18.9855C48.9783 18.4209 49.1251 19.0612 49.569 18.9855C49.9034 18.9273 50.0816 18.3394 50.2377 18.3068C50.3973 18.273 51.5577 18.7364 51.5741 17.6292C52.1135 18.0996 53.296 17.9156 53.5791 18.6456C54.5718 18.5641 52.2405 17.3847 53.5791 16.9505C53.6782 16.061 52.2824 16.6851 52.5772 15.5942C52.9104 15.5942 53.2459 15.5942 53.5791 15.5942C53.7935 14.6814 54.87 14.643 54.9155 13.5615C55.8149 13.3286 55.5632 14.2623 55.9186 14.579C55.7427 13.3438 57.3807 13.2262 57.9248 11.8675C58.3151 11.9246 58.2056 12.4857 58.2592 12.8839C59.1878 13.0306 58.8872 11.9607 59.5955 11.8675C60.4425 11.7569 60.3773 12.4822 61.2674 12.8839C61.5727 11.9048 60.3878 12.0329 60.2643 11.5276C60.1886 11.2272 60.8736 10.8652 60.9342 10.5112C61.0542 9.79059 60.1676 9.37613 60.5987 8.47736C61.187 8.78588 61.2103 9.66486 61.6018 10.1725C62.1797 9.57289 62.083 9.39942 62.6061 9.49605C63.0138 9.57056 63.0838 8.10482 63.6092 9.15726C64.0578 8.93373 64.2325 8.43196 64.2768 7.80096C65.1774 7.82424 65.8846 8.57749 65.2811 9.15726C66.4182 9.5496 67.645 10.2248 68.9569 9.49605C68.5852 7.98723 69.8411 8.13159 69.96 7.12338C70.7441 7.2107 70.1534 8.61241 69.96 8.81848C70.0159 9.21547 70.5693 9.10371 70.9643 9.15726C70.5553 7.81726 71.0167 6.34918 69.2936 5.76708C70.8035 4.90789 72.9286 5.80317 73.9736 5.76708C73.5495 7.55298 74.8404 7.59838 76.3131 7.46217C76.3131 7.23631 76.3131 7.00929 76.3131 6.78576C74.7554 6.41438 73.5472 4.75422 74.3068 3.05563C74.9255 4.04637 73.9934 4.43988 75.6432 5.09067C76.581 4.75654 75.1585 4.18492 75.9787 3.7332C76.4517 3.76347 76.9247 3.78908 76.9795 3.39558C77.7659 4.40495 77.5352 4.3351 78.6514 3.7332C78.3589 4.8229 79.5193 4.43639 79.6545 5.09067C80.046 5.03363 79.9364 4.47131 79.9889 4.07199C81.0386 3.91249 80.872 4.98473 81.6607 5.09067C82.2456 4.44337 82.9109 3.87291 84.0002 3.7332C84.0002 3.16856 84.0002 2.60275 84.0002 2.03927C84.9451 2.31869 84.8658 1.56078 85.6709 1.70049C85.9925 2.24534 87.5781 4.46782 88.0104 2.71568C89.0426 2.91243 89.2535 3.94043 89.6822 4.74956C90.591 4.99171 89.4422 3.1511 90.351 3.39442C90.0166 2.82861 88.8049 3.15459 88.6803 2.37806C88.7711 1.67953 89.9246 2.0579 90.0166 1.35938C90.5129 1.6481 90.5001 2.45257 90.6853 3.05447C92.0776 1.45368 93.492 3.77977 95.3642 3.73204C95.6194 2.45839 93.5899 3.4992 94.0291 2.03811C94.2703 2.31519 96.3417 2.9462 96.0342 1.69932C96.3045 1.76336 96.3674 2.03927 96.7018 2.03811C96.6412 2.32683 96.8322 2.35827 97.0373 2.3769C96.9615 2.86354 96.04 2.49332 96.0342 3.0533C96.0458 4.39797 97.3251 4.45851 98.0392 5.08834C99.2835 4.10924 100.473 3.59582 101.716 3.39325C102.127 3.53994 102.401 3.82517 102.384 4.40844C103.63 4.14999 102.566 2.80183 101.381 3.05214C102.127 2.21973 102.926 2.51078 103.721 3.05214C102.929 4.41659 104.254 3.88571 104.391 5.08718C105.419 4.84852 105.032 4.84852 106.061 5.08718C105.816 5.40268 105.455 5.59943 105.059 5.76359C105.123 6.03718 105.394 6.10121 105.393 6.44116C106.423 6.69379 106.035 5.51095 107.064 5.76359C107.251 6.25255 107.585 6.59134 108.066 6.78227C107.239 8.21076 108.012 8.49599 107.731 9.49255C108.144 9.9792 108.881 10.1329 109.738 10.169C109.657 9.57405 109.163 9.39709 108.401 9.49255C109.027 8.84642 108.437 8.64035 108.401 7.79746C109.025 7.52737 109.625 7.23049 110.406 7.11989C110.07 8.13858 111.151 7.72179 111.743 7.79746L111.739 7.80328ZM109.4 7.80328C109.3 8.69507 109.862 8.91511 110.736 8.8208C110.838 7.92669 110.274 7.70898 109.4 7.80328ZM63.6057 10.5147C63.1548 10.4088 62.9672 10.0327 62.2694 10.1759C62.6783 12.0282 63.7828 10.4414 64.6088 10.5147C64.6822 10.5217 64.6811 11.63 65.2776 11.1923C65.3836 10.4065 65.224 9.89188 64.9432 9.49838C63.8702 9.2015 64.25 10.3774 63.6069 10.5147H63.6057ZM110.736 10.8547C111.498 10.949 111.992 10.772 112.072 10.1748C111.595 10.0945 111.51 9.61596 111.071 9.49838C110.966 9.95591 110.594 10.1457 110.736 10.8547ZM112.741 10.8547C113.293 10.8582 112.929 11.793 113.41 11.8699C113.158 10.7965 115.351 10.4856 114.746 10.1748C113.711 10.6183 113.448 9.90934 112.741 10.8547ZM114.079 12.5463C114.228 11.9944 112.255 11.9944 112.407 12.5463C112.448 13.0306 114.238 13.9433 114.079 12.5463ZM123.102 24.7495C122.689 23.6529 124.185 24.4899 123.772 23.3932C122.812 23.8659 122.073 22.47 121.766 23.3932C122.627 23.4247 122.245 24.7158 123.102 24.7495ZM126.112 29.1549C126.335 29.1549 126.558 29.1549 126.781 29.1549C127.492 29.0443 126.726 27.6775 126.447 27.4598C126.581 28.2759 125.835 28.1968 126.112 29.1549ZM123.438 28.4762C123.878 28.8231 124.67 28.8091 125.11 29.1549C125.242 28.0675 123.687 27.22 123.438 28.4762ZM128.785 32.2063C128.805 31.9991 128.837 31.8058 129.121 31.8675C129.063 32.7151 129.634 32.9281 130.122 33.2227C130.602 32.4496 131.63 31.5101 130.457 30.85C130.789 33.2809 128.217 30.6591 128.785 32.2075V32.2063ZM131.125 34.9166C131.153 34.9061 129.834 34.3194 130.457 35.593C131.259 35.3881 131.981 35.1075 133.131 35.2554C132.776 33.6662 131.521 34.7641 131.125 34.9166ZM132.797 36.9505C132.254 36.8492 131.895 37.408 132.463 37.628C132.79 36.8317 134.135 37.0657 134.133 35.933C132.547 35.6384 133.209 36.7607 132.797 36.9493V36.9505ZM131.125 39.322C131.94 39.131 132.846 39.0321 132.797 37.9657C131.707 37.8772 131.188 38.3685 131.125 39.322ZM136.807 53.5568C136.732 52.9165 137.184 52.8094 137.142 52.2005C136.648 52.0235 136.301 51.6999 135.805 51.5241C135.953 52.3891 136.276 53.0818 136.808 53.5568H136.807ZM134.467 57.2858C135.166 58.0239 135.422 57.1158 136.474 57.2858C135.641 57.8003 136.852 60.0275 137.476 58.9808C136.71 58.3999 138.021 57.0704 137.81 55.9295C136.518 56.0738 136.62 56.2997 135.804 55.5907C136.284 57.7957 134.781 55.8864 134.467 57.2858ZM134.802 60.336C134.908 59.8761 135.278 59.6864 135.137 58.9797C134.479 58.8772 134.474 59.4361 134.133 59.6561C133.656 59.5746 133.57 59.0984 133.131 58.9797C132.917 60.2126 133.823 60.3104 134.802 60.336ZM135.804 63.0463C135.203 61.3046 137.011 62.0078 137.141 61.0124C135.515 60.5223 133.681 62.7878 135.804 63.0463ZM135.804 67.4528C135.992 66.965 136.326 66.6251 136.807 66.4341C136.074 65.1465 137.478 65.1488 137.477 63.7238C135.769 64.3036 135.782 66.6577 135.805 67.4528H135.804ZM131.459 66.4341C131.937 66.5156 132.023 66.993 132.463 67.1117C132.743 66.7182 132.903 66.2036 132.797 65.4178C132.336 65.4317 132.063 65.2571 131.794 65.0778C131.869 65.7193 131.416 65.8241 131.459 66.4341ZM138.144 68.468C138.144 67.9034 138.144 67.3376 138.144 66.7729C137.699 66.7729 137.253 66.7729 136.807 66.7729C136.721 67.8777 137.205 68.4051 138.144 68.468ZM128.784 69.1444C130.628 69.4541 130.105 67.7241 128.784 67.7893C128.784 68.241 128.784 68.6927 128.784 69.1444ZM131.794 70.5019C132.222 70.9676 133.792 71.0921 133.8 70.1631C132.998 70.297 133.985 68.6194 132.797 69.1444C133.09 70.2329 131.93 69.8488 131.794 70.5019ZM131.794 74.2309C131.794 74.9073 131.794 75.5872 131.794 76.2636C132.936 76.0098 132.218 77.6408 133.464 77.2811C134.106 75.6139 132.354 76.3742 132.463 75.246C132.702 74.2716 135.177 74.4416 134.133 73.2122C132.934 73.1272 132.91 74.2309 131.794 74.2309ZM50.2342 77.9587C48.9701 78.4488 49.5923 77.0273 48.5624 77.2811C48.1756 78.6211 50.1166 79.081 50.2342 77.9587ZM49.2299 82.0252C49.6762 82.0252 50.1236 82.0252 50.5663 82.0252C50.5663 81.5747 50.5663 81.123 50.5663 80.6689C49.7915 80.7877 49.0004 80.889 49.2299 82.0252ZM131.459 83.0428C131.154 82.449 131.345 81.3523 130.79 81.0089C130.073 81.7319 130.666 82.8553 131.459 83.0428ZM124.105 86.093C125.277 85.8252 125.205 85.1407 126.11 86.093C126.441 83.9637 124.18 84.9276 124.105 86.093ZM58.9245 88.8044C59.5699 89.2783 59.5653 90.4157 60.5952 90.4995C60.3925 89.6892 60.1152 88.9546 60.262 87.7881C59.4243 87.7299 59.2146 88.3108 58.9245 88.8056V88.8044ZM123.437 89.1432C123.379 89.9919 123.95 90.2062 124.438 90.4995C123.629 88.8615 126.653 89.3912 125.444 88.4668C125.03 88.9511 124.294 89.1071 123.438 89.1432H123.437ZM120.094 91.5159C121.116 91.2714 121.313 91.8617 122.1 91.8547C121.962 91.0374 122.711 91.1177 122.435 90.1584C121.163 89.6613 122.368 91.6754 121.098 91.1783C120.708 91.1189 120.735 90.6404 120.764 90.1584C120.37 90.2131 119.814 90.1014 119.761 90.4984C120.453 90.6881 120.468 91.0281 120.094 91.5159ZM65.944 92.8722C67.264 92.438 66.7537 93.8606 67.6147 93.8886C67.7592 93.2424 68.3359 93.0364 68.2846 92.1935C67.3374 92.2517 65.9918 91.9024 65.944 92.871V92.8722ZM69.9541 96.9388C70.7848 96.9889 71.5771 97.0017 71.626 96.2612C70.9619 95.5557 70.1976 96.2496 69.9541 96.9388ZM113.409 98.6327C113.552 97.9877 114.363 98.0215 114.079 96.9388C113.084 96.5348 112.641 98.3673 113.409 98.6327ZM104.05 97.6175C103.814 98.4593 105.481 99.0518 105.721 98.2951C104.945 98.1472 104.826 96.7991 104.05 97.6175ZM111.404 97.9563C111.404 98.1822 111.404 98.408 111.404 98.6327C111.831 98.6525 111.866 99.067 112.406 98.9715C112.331 98.3324 112.783 98.2241 112.74 97.6164C112.107 97.5395 112.003 97.9982 111.404 97.9551V97.9563ZM103.048 100.667C103.827 100.554 104.487 100.32 104.717 99.6514C104.031 98.9482 103.025 99.6526 103.048 100.667ZM99.3709 101.684C100.009 101.828 99.9768 102.652 101.042 102.363C101.456 101.266 99.9604 102.103 100.374 101.007C100.473 100.607 102.143 100.156 101.042 99.6502C100.573 100.417 99.689 100.763 99.3709 101.683V101.684ZM98.3678 102.023C98.3282 101.161 97.8808 100.71 97.0315 100.667C97.1468 101.455 97.2482 102.256 98.3678 102.023Z" fill="#FF3F12"/>
<path fill-rule="evenodd" clip-rule="evenodd" d="M108.398 6.44821C108.398 6.10943 108.398 5.77064 108.398 5.43186C109.915 4.79736 108.851 6.77885 110.069 6.44821C109.784 7.44245 109.227 6.00814 108.398 6.44821Z" fill="#FF3F12"/>
<path fill-rule="evenodd" clip-rule="evenodd" d="M120.765 12.5466C120.921 11.8248 120.287 11.9016 119.762 11.8702C120.008 10.6116 121.564 11.4615 121.431 12.5466C120.358 12.3393 120.973 13.7678 120.095 12.8865C120.104 12.5559 120.505 12.6234 120.765 12.5466Z" fill="#FF3F12"/>
<path fill-rule="evenodd" clip-rule="evenodd" d="M127.449 14.2414C129.01 14.9527 126.899 15.6478 126.783 16.2764C126.796 16.188 126.781 18.8517 126.783 18.9879C126.785 19.6515 127.299 20.0229 127.116 20.683C125.835 20.8495 125.346 20.2161 125.111 19.3255C125.408 19.5886 125.866 19.6899 126.448 19.6643C126.679 18.2998 125.04 18.8319 125.111 17.6316C125.408 17.3685 125.866 17.2672 126.448 17.2916C126.016 16.4953 126.491 16.6618 126.113 15.5965C127.064 16.5675 127.295 15.0761 127.449 14.2402V14.2414Z" fill="#FF3F12"/>
<path fill-rule="evenodd" clip-rule="evenodd" d="M121.766 17.6325C121.821 17.2367 121.693 17.0271 121.432 16.9538C121.652 16.4974 122.147 16.3239 122.768 16.2773C123.147 16.9118 123.164 17.9107 124.439 17.6336C124.356 18.0015 123.777 17.8642 123.771 18.3112C123.446 17.7361 122.846 17.4416 121.765 17.6336L121.766 17.6325Z" fill="#FF3F12"/>
<path fill-rule="evenodd" clip-rule="evenodd" d="M128.119 22.0381C129.448 21.8413 130.318 22.9159 132.798 22.3757C131.328 22.8053 130.989 24.3851 129.455 24.7495C129.903 23.1476 127.366 22.8227 128.119 22.0381Z" fill="#FF3F12"/>
<path fill-rule="evenodd" clip-rule="evenodd" d="M138.814 30.5112C139.513 30.3668 139.699 30.7417 140.15 30.8488C139.849 31.4402 139.402 32.1539 138.814 31.5264C138.814 31.7522 138.814 31.9792 138.814 32.2063C137.834 31.9175 139.249 31.3529 138.814 30.5112Z" fill="#FF3F12"/>
<path fill-rule="evenodd" clip-rule="evenodd" d="M135.805 32.8829C135.057 32.0819 136.545 33.3055 136.475 33.9004C137.338 33.8701 136.825 32.4486 138.145 32.8829C138.049 33.0912 137.314 34.1879 138.145 34.2392C137.637 35.7352 136.108 33.6827 135.47 34.5779C134.262 33.9632 136.061 33.6431 135.805 32.8829Z" fill="#FF3F12"/>
<path fill-rule="evenodd" clip-rule="evenodd" d="M36.8639 36.2727C36.9885 35.6953 36.6041 35.6336 36.1963 35.594C36.265 33.6707 38.2713 34.261 37.8658 36.2727C37.168 36.1284 36.9815 36.5044 36.5295 36.6104C36.0157 36.4311 36.5085 36.2576 36.8639 36.2727Z" fill="#FF3F12"/>
<path fill-rule="evenodd" clip-rule="evenodd" d="M146.503 45.4225C146.253 46.6845 146.203 47.7171 147.506 48.1351C147.837 49.4856 146.506 49.1561 146.836 50.5077C146.496 50.2877 146.49 49.7265 145.833 49.8302C146.466 48.6473 145.864 48.1234 144.831 47.7963C145.075 47.1932 145.439 47.7474 145.833 47.7963C145.833 47.4587 145.833 47.1187 145.833 46.7799C144.634 47.227 144.609 46.7566 143.493 47.1187C143.493 46.667 143.493 46.2165 143.493 45.7636C144.4 46.9976 144.388 44.8951 145.164 44.7461C145.567 44.6692 145.741 45.1815 146.501 45.4225H146.503Z" fill="#FF3F12"/>
<path fill-rule="evenodd" clip-rule="evenodd" d="M145.834 52.2009C146.12 52.8156 146.694 53.1358 146.837 53.896C146.608 53.825 146.242 53.4024 145.834 53.5572C145.751 53.5886 145.379 54.2336 145.499 54.2348C144.699 54.229 144.277 53.4524 143.16 53.2184C143.258 52.528 144.065 52.5548 144.163 51.8633C144.841 52.0798 144.382 53.4466 145.165 53.5572C145.783 53.506 145.37 52.4093 145.834 52.2009Z" fill="#FF3F12"/>
<path fill-rule="evenodd" clip-rule="evenodd" d="M154.191 54.9116C154.302 55.8244 152.497 57.8559 152.519 55.5892C152.816 55.7405 153.119 55.8872 153.189 56.2667C154.001 55.9268 152.533 54.7684 154.192 54.9116H154.191Z" fill="#FF3F12"/>
<path fill-rule="evenodd" clip-rule="evenodd" d="M142.158 59.9978C141.938 60.4518 141.442 60.6288 140.82 60.6742C141.461 61.1538 142.513 61.219 142.825 62.0305C143.661 62.0887 143.87 61.5112 144.162 61.0141C145.024 61.0432 144.514 62.4659 145.832 62.0305C145.824 62.3599 145.423 62.2924 145.164 62.3693C145.606 63.9456 144.053 63.5044 144.495 65.0795C143.291 64.4672 143.51 65.1412 142.489 65.4195C142.673 64.7245 141.851 64.6104 141.821 65.0795C141.325 64.9317 141.954 64.6465 141.821 64.0632C142.765 63.7838 142.687 64.5405 143.492 64.402C143.904 63.3065 142.411 64.1435 142.823 63.0457C143.612 63.4823 143.444 63.0003 144.494 63.3833C144.199 62.7406 140.865 61.4332 141.151 63.3833C140.697 64.0422 140.756 61.3215 140.482 60.673C140.964 60.2248 141.325 59.1223 142.154 59.9966L142.158 59.9978Z" fill="#FF3F12"/>
<path fill-rule="evenodd" clip-rule="evenodd" d="M37.8658 69.4856C37.7773 68.0804 38.3062 68.1665 37.8658 67.1129C37.5839 66.6111 36.7905 66.6216 36.1963 66.4353C36.6914 66.0348 36.7159 65.1559 37.1983 64.7402C38.8387 64.7647 36.4421 65.5144 37.5326 66.0977C38.1699 65.9533 38.1373 65.1291 39.2033 65.4201C38.5952 67.9954 39.2721 68.1293 39.8721 70.5031C39.3396 68.8173 36.498 71.1911 38.8713 71.1806C38.7664 71.6393 38.0313 71.4612 37.5326 71.5194C38.0604 70.5822 36.6647 69.999 36.5295 70.8395C35.919 70.63 37.1074 69.425 37.8658 69.4856Z" fill="#FF3F12"/>
<path fill-rule="evenodd" clip-rule="evenodd" d="M148.173 70.5033C149.421 70.1435 148.702 71.7734 149.845 71.5208C149.845 71.9713 149.845 72.4231 149.845 72.8771C149.396 72.6536 149.222 72.1518 149.176 71.5208C148.307 71.7245 147.973 71.3834 148.173 70.5033Z" fill="#FF3F12"/>
<path fill-rule="evenodd" clip-rule="evenodd" d="M142.826 73.2137C142.82 72.5408 141.913 72.7841 142.157 71.8574C142.927 72.6444 143.233 71.2322 144.496 71.5197C144.033 72.6292 143.251 73.4221 142.157 73.8924C142.305 73.5897 142.449 73.2847 142.826 73.2137Z" fill="#FF3F12"/>
<path fill-rule="evenodd" clip-rule="evenodd" d="M140.151 80.3301C139.614 80.9181 139.139 81.5642 137.811 81.3488C137.53 80.9553 137.371 80.4396 137.477 79.6537C137.603 80.4291 138.813 80.1054 139.148 80.6689C139.97 80.3744 139.897 79.1682 141.153 79.3149C140.487 78.6583 141.248 78.9366 141.486 78.6374C141.77 78.2834 141.256 77.3288 142.156 77.6198C142.092 77.8934 141.82 77.9563 141.821 78.2974C141.965 78.8295 142.873 78.5861 142.489 79.6537C141.313 78.5012 141.686 80.8307 140.149 80.3301H140.151Z" fill="#FF3F12"/>
<path fill-rule="evenodd" clip-rule="evenodd" d="M138.146 82.0253C138.415 82.2045 138.687 82.3792 139.149 82.364C139.058 83.0637 137.669 82.4455 137.812 83.3804C136.986 83.0579 135.081 80.868 137.144 80.6689C137.081 80.9437 136.807 81.0066 136.808 81.3488C137.142 81.8006 137.712 82.0124 137.812 82.7028C138.137 82.6935 138.071 82.2884 138.147 82.0253H138.146Z" fill="#FF3F12"/>
<path fill-rule="evenodd" clip-rule="evenodd" d="M136.141 85.4147C136.066 84.1748 135.68 84.1142 136.141 83.042C137.124 83.5251 137.406 84.9199 138.814 84.0584C138.955 84.765 138.585 84.956 138.48 85.4147C137.998 85.2237 137.665 84.8849 137.477 84.3983C136.598 84.2982 137.214 85.7127 136.141 85.4147Z" fill="#FF3F12"/>
<path fill-rule="evenodd" clip-rule="evenodd" d="M52.2404 89.1423C53.1527 89.1725 52.9138 88.5788 53.5768 89.1423C53.8983 90.1796 51.934 90.5975 51.9061 90.1575C50.9961 89.5172 52.7973 90.7501 52.2404 89.1423Z" fill="#FF3F12"/>
<path fill-rule="evenodd" clip-rule="evenodd" d="M140.151 93.2092C140.296 92.7086 140.579 93.3431 141.154 93.2092C140.804 94.3246 140.419 95.4015 138.814 95.2443C138.351 93.8472 141.479 94.3607 140.151 93.2092Z" fill="#FF3F12"/>
<path fill-rule="evenodd" clip-rule="evenodd" d="M123.773 97.6154C122.973 97.4816 123.957 99.1592 122.769 98.6306C123.292 97.4175 122.351 96.4792 124.107 96.2591C123.653 98.7925 125.51 96.2987 125.777 96.2591C126.572 96.1427 127.026 98.0171 128.118 96.9367C127.952 98.0078 129.775 97.0624 129.454 98.293C128.047 97.4117 128.05 98.8355 126.78 98.9694C125.94 98.3733 126.544 98.4106 126.11 97.6143C123.649 98.846 122.803 101.715 120.094 102.698C120.813 101.801 119.742 100.545 119.425 99.647C118.444 99.9357 119.86 100.498 119.425 101.342C118.836 101.035 118.39 100.584 118.089 99.9858C117.594 100.613 116.361 100.493 116.418 101.68C116.521 102.264 117.578 101.238 117.42 102.698C116.88 102.794 116.844 102.377 116.418 102.36C115.977 103.935 117.527 103.492 117.087 105.071C116.955 105.883 118.61 104.884 118.09 106.087C116.842 106.057 117.137 105.708 116.085 106.087C116.563 105.076 115.811 104.935 116.419 104.055C115.637 103.064 114.129 104.194 113.744 104.731C113.849 105.192 114.581 105.012 115.083 105.07C115.184 105.852 114.116 105.446 114.08 106.086C114.042 107.254 115.455 106.951 115.416 108.12C114.386 108.358 114.772 108.358 113.744 108.12C113.65 107.573 114.061 107.536 114.08 107.101C112.902 106.488 112.551 105.037 112.074 103.712C112.123 102.957 112.916 104.154 113.744 103.712C114.108 103.629 113.972 103.038 114.413 103.035C114.268 102.533 113.986 103.168 113.411 103.035C113.41 101.903 114.499 101.878 114.413 100.662C115.36 100.897 117.72 99.3164 116.754 98.6283C117.478 97.3814 117.497 99.6435 118.425 99.3082C118.745 98.2267 118.575 97.3803 119.762 96.5968C120.593 96.648 119.858 97.7447 119.762 97.9531C119.659 98.3605 120.308 98.1172 120.43 98.2919C120.511 98.4083 120.322 98.8856 120.43 98.9683C120.707 99.1825 121.155 99.1441 121.433 99.3082C122.3 99.8158 122.025 100.03 123.103 99.3082C123.771 98.8623 124.679 98.7692 123.773 97.6131V97.6154Z" fill="#FF3F12"/>
<path fill-rule="evenodd" clip-rule="evenodd" d="M126.447 103.038C127.789 103.395 126.403 104.415 126.781 105.751C126.004 105.642 125.498 105.804 125.11 106.089C124.212 106.886 125.407 105.899 125.445 105.751C125.717 104.66 124.929 104.383 126.113 104.057C126.491 103.951 126.405 103.476 126.448 103.038H126.447Z" fill="#FF3F12"/>
<path fill-rule="evenodd" clip-rule="evenodd" d="M90.012 112.527C90.9569 112.248 90.8777 113.006 91.6839 112.865C91.522 113.42 88.9204 115.482 89.0101 113.544C90.054 113.914 90.0773 113.889 90.012 112.526V112.527Z" fill="#FF3F12"/>
<path fill-rule="evenodd" clip-rule="evenodd" d="M9.34605 32.4486C8.70759 33.799 7.59612 31.7558 5.4256 32.4486C5.08657 31.6173 5.97085 31.8851 6.33086 31.8455C7.30835 31.7396 9.03847 31.6732 9.34605 32.4486Z" fill="#FF3F12"/>
<path fill-rule="evenodd" clip-rule="evenodd" d="M15.0757 54.4438C15.0559 54.4414 15.0955 54.1484 15.0757 54.1426C16.7185 54.6147 12.7969 54.7775 12.3611 54.7438C12.3984 54.7461 10.6368 54.6031 12.9646 54.4426C13.4738 54.4077 14.2742 54.3263 15.0746 54.4426L15.0757 54.4438Z" fill="#FF3F12"/>
<path fill-rule="evenodd" clip-rule="evenodd" d="M0.300497 56.8535C0.749048 57.2098 1.64848 57.1155 1.50634 58.0596C0.562636 58.1993 0.160689 57.7977 0.300497 56.8535Z" fill="#FF3F12"/>
<path fill-rule="evenodd" clip-rule="evenodd" d="M25.6289 69.8105C25.9307 69.8105 26.2324 69.8105 26.5342 69.8105C26.6192 70.5976 26.4235 71.1063 25.6289 71.0167C25.6289 70.615 25.6289 70.2134 25.6289 69.8105Z" fill="#FF3F12"/>
<path fill-rule="evenodd" clip-rule="evenodd" d="M7.83866 74.0293C8.28721 74.3844 9.18664 74.2889 9.04567 75.2343C8.6577 75.6487 7.73614 75.5335 6.93457 75.5358C7.20603 75.0037 7.6639 74.6556 7.83866 74.0293Z" fill="#FF3F12"/>
<path fill-rule="evenodd" clip-rule="evenodd" d="M2.41169 92.7109C1.99692 93.9461 1.30487 93.3361 0 93.3139C0.415929 92.0787 1.10681 92.6864 2.41169 92.7109Z" fill="#FF3F12"/>
<path fill-rule="evenodd" clip-rule="evenodd" d="M25.9307 111.09C26.1171 111.714 25.5987 111.511 25.3284 111.693C24.7016 112.111 24.6061 112.423 23.8208 111.693C24.1773 111.146 25.3925 111.455 25.9307 111.09Z" fill="#FF3F12"/>
<path fill-rule="evenodd" clip-rule="evenodd" d="M0.300781 119.227C0.54195 120.189 1.5008 120.436 1.80838 121.335C0.729526 121.208 0.35787 120.374 0.300781 119.227Z" fill="#FF3F12"/>
<path fill-rule="evenodd" clip-rule="evenodd" d="M8.44189 119.829C8.71569 119.286 10.1685 120.088 10.2512 120.733C9.94949 120.733 9.64774 120.733 9.34715 120.733C9.5557 119.922 8.72384 120.15 8.44306 119.829H8.44189Z" fill="#FF3F12"/>
<path d="M40.6854 47.5469H23.8525V64.3674H40.6854V47.5469Z" fill="#FF3F12"/>
<path d="M52.4012 30.7266H35.5684V47.5471H52.4012V30.7266Z" fill="#FF3F12"/>
<path d="M55.6029 63.5352H38.77V80.3557H55.6029V63.5352Z" fill="#FF3F12"/>
<path d="M35.5685 21.9824H26.8188V30.7256H35.5685V21.9824Z" fill="#FF3F12"/>
<path d="M55.7671 20.3848H45.1895V30.9546H55.7671V20.3848Z" fill="#FF3F12"/>
<path d="M54.0602 80.3555H45.3105V89.0987H54.0602V80.3555Z" fill="#FF3F12"/>
<path d="M86.6936 103.732C113.292 103.732 134.854 82.1861 134.854 55.6074C134.854 29.0287 113.292 7.48242 86.6936 7.48242C60.0953 7.48242 38.5332 29.0287 38.5332 55.6074C38.5332 82.1861 60.0953 103.732 86.6936 103.732Z" fill="#FF3F12"/>
<path d="M133.3 75.9141H119.672V89.5318H133.3V75.9141Z" fill="#FF3F12"/>
<path d="M141.604 68.8242H128.735V77.5674H141.604V68.8242Z" fill="#FF3F12"/>
<path d="M151.894 52.2529H143.145V60.9962H151.894V52.2529Z" fill="#FF3F12"/>
<path d="M65.9391 43.2069C65.9146 43.2872 65.8878 43.3675 65.8575 43.4467C63.574 49.4645 62.5313 54.7396 62.3926 59.2963C62.2039 65.4934 63.6695 70.3505 65.9076 73.9083C68.0327 77.2857 70.8219 79.4674 73.4747 80.4721C74.4802 80.8528 75.4262 81.0566 76.2616 81.0822C76.4806 81.0892 76.1602 81.0729 76.5586 81.0729V81.0892C76.9152 81.0892 77.2752 81.0682 77.6375 81.0286H77.6433L77.7925 81.0111L77.8018 81.01L77.9661 80.989L77.9905 80.9855C78.1396 80.9646 78.2888 80.9401 78.4379 80.9122L78.4589 80.9075L78.587 80.8831L78.6243 80.8761L78.7863 80.8423L78.7886 80.8412L78.8865 80.8202L78.9366 80.8086L78.954 80.8039L78.9867 80.7969L79.0868 80.7736L79.1206 80.7655L79.2803 80.7248L79.2872 80.7236H79.2884L79.3385 80.7108L79.4387 80.684L79.4527 80.6793L79.589 80.6409L79.6181 80.6328L79.6391 80.627L79.7393 80.5967C82.1696 79.8644 84.5918 78.3544 86.6994 76.3229L86.7087 76.3136L86.718 76.3042L86.725 76.2973L86.7274 76.2949L86.7367 76.2856L86.746 76.2763L86.7553 76.267L86.7646 76.2577L86.774 76.2484L86.7833 76.239L86.7926 76.2297L86.8019 76.2204L86.8206 76.2018L86.8299 76.1925L86.8392 76.1832L86.8485 76.1738L86.8578 76.1645L86.8672 76.1552L86.8683 76.1541L86.8765 76.1459L86.8858 76.1366L86.8951 76.1273L86.9044 76.118L86.9138 76.1087L86.9231 76.0993L86.9324 76.09L86.9417 76.0807L86.951 76.0714L86.9604 76.0621L86.9697 76.0528L86.979 76.0435L86.9883 76.0341L86.9977 76.0248L87.007 76.0155L87.0105 76.012L87.0163 76.0062L87.0256 75.9969L87.0349 75.9876L87.0442 75.9783L87.0536 75.9689L87.0629 75.9596L87.0722 75.9503L87.0815 75.941L87.0909 75.9317L87.1002 75.9224L87.1095 75.9131L87.1188 75.9038L87.1281 75.8944L87.1375 75.8851L87.1468 75.8758L87.1538 75.8688L87.1561 75.8653L87.1654 75.856L87.1747 75.8467L87.1841 75.8374L87.1934 75.8281L87.2027 75.8188L87.212 75.8094L87.2213 75.8001L87.2307 75.7908L87.24 75.7815L87.2493 75.7722L87.2586 75.7629L87.2679 75.7536L87.2773 75.7443L87.2866 75.7349L87.2959 75.7256L87.3378 75.6814L87.3798 75.6371L87.4217 75.5929L87.445 75.5685L87.4637 75.5487L87.5056 75.5033L87.5476 75.4579L87.5895 75.4125L87.5942 75.4078L87.6314 75.3671L87.6734 75.3216L87.7153 75.2762L87.7421 75.2471L87.7573 75.2308L87.798 75.1854L87.8388 75.14L87.8796 75.0935L87.8878 75.0853L87.9204 75.0481L88.0019 74.9561L88.0322 74.9212L88.0427 74.9095L88.1627 74.7698L88.1744 74.7558C88.2641 74.6511 88.3526 74.5451 88.44 74.438L88.4552 74.4194L88.4796 74.3903L88.5181 74.3425L88.5565 74.2948L88.5926 74.2494L88.595 74.2459L88.6334 74.197L88.6718 74.1481L88.7103 74.0992L88.7289 74.0759L88.7487 74.0503L88.7872 74.0014L88.8245 73.9525L88.8618 73.9036L88.8629 73.9025L88.899 73.8547L88.9363 73.8058L88.9736 73.7569L88.9946 73.729L89.0109 73.708L89.0482 73.6592L89.0843 73.6091L89.1216 73.559L89.1262 73.5532L89.1588 73.509L89.195 73.4589L89.2311 73.4088L89.2556 73.3751L89.2672 73.3588L89.3033 73.3087L89.3394 73.2587L89.3744 73.2086L89.3825 73.197L89.4105 73.1574L89.4455 73.1073L89.4804 73.0561L89.5072 73.0177L89.5154 73.006L89.5503 72.9548L89.6307 72.8361L89.654 72.8011L89.7519 72.6533L89.7565 72.6463C91.6113 69.8336 92.8032 66.5691 92.9057 63.2057C92.9104 63.0567 92.8987 63.1917 92.8987 62.7132H92.915C92.9139 56.9399 91.1127 53.3227 88.7965 51.8325C88.1056 51.3878 87.3926 51.1561 86.7145 51.1445C86.033 51.1317 85.3316 51.3272 84.6663 51.7324C82.4236 53.0992 80.6387 56.5662 80.4942 62.3279C80.4873 62.612 80.4884 62.9042 80.4977 63.201C80.6271 67.4388 82.4912 71.5275 85.2337 74.7523C83.351 76.5674 80.8403 78.2415 78.2259 78.7689C74.9089 74.4427 72.7011 69.0722 72.5299 63.4199C72.517 63.0031 72.5159 62.5759 72.5264 62.1416C72.7477 53.3053 76.1742 47.568 80.5117 44.9253C82.4912 43.7191 84.6594 43.1417 86.8404 43.1824C89.0237 43.2232 91.1721 43.8728 93.1108 45.1208C97.4832 47.9347 100.884 53.8839 100.885 62.7156H100.902L100.877 63.4257C100.731 68.1839 99.14 72.7441 96.6584 76.6523L96.6094 76.7303L96.5593 76.8083L96.5116 76.8817L96.5093 76.8863L96.4079 77.0412L96.3566 77.118L96.3496 77.1285L96.3054 77.1949L96.2541 77.2717L96.2028 77.3485L96.1854 77.3741L96.1504 77.4242L96.0991 77.5011L96.0875 77.5185L95.9943 77.6536L95.9419 77.7292L95.8894 77.8049L95.8883 77.8061L95.8358 77.8794L95.7823 77.9551L95.7287 78.0296L95.6797 78.0971L95.6739 78.1041L95.6203 78.1786L95.5667 78.2531L95.512 78.3276L95.5061 78.3346L95.4572 78.401L95.4024 78.4743L95.3477 78.5477L95.3314 78.5686L95.2918 78.621L95.2358 78.6944L95.1531 78.8026L95.124 78.8399L95.0681 78.9121L95.0121 78.9843L94.9749 79.0331L94.9562 79.0564L94.842 79.2008L94.7931 79.2625L94.7861 79.2718L94.729 79.3428L94.6719 79.4138L94.6137 79.4849L94.6102 79.4895L94.5554 79.5559L94.4972 79.6257L94.4389 79.6968L94.4238 79.7142L94.3795 79.7666L94.3213 79.8365L94.2618 79.9063L94.2362 79.9377L94.2024 79.9762L94.1873 79.9936L94.0836 80.1147L94.0463 80.1589L94.0242 80.1834L93.9647 80.2521L93.9042 80.3208L93.8541 80.3778L93.8436 80.3895L93.7224 80.5245L93.6618 80.592L93.6607 80.5932C93.4579 80.8179 93.2529 81.0379 93.0443 81.2556C91.1476 83.229 88.9957 84.9101 86.7041 86.1989L86.5538 86.2827L86.4093 86.3619L86.4023 86.3654L86.252 86.4468L86.2497 86.448L86.0982 86.5283L86.0947 86.5307L85.9456 86.6087L85.9374 86.6133L85.793 86.6878L85.779 86.6948L85.6392 86.7647L85.6205 86.774L85.4854 86.8404L85.4621 86.852L85.3316 86.916L85.3025 86.93L85.1778 86.9894L85.1429 87.0057L85.0229 87.0616L84.9832 87.0802L84.8679 87.1326L84.8225 87.1535L84.7129 87.2024L84.6629 87.2245L84.5568 87.2711L84.5009 87.2956L84.4007 87.3386L84.3401 87.3642L84.2446 87.405L84.1782 87.4329L84.0885 87.4702H84.0873L83.9312 87.5342L83.8543 87.5657L83.7751 87.5971L83.6924 87.6297L83.6178 87.6588L83.5304 87.6926C81.2515 88.5669 78.8958 89.0465 76.5656 89.0465V89.0628C76.4386 89.0628 76.5388 89.0558 76.0507 89.0407C74.3077 88.9883 72.4809 88.6181 70.6704 87.9312C66.5402 86.3665 62.2819 83.1044 59.1654 78.1495C56.1618 73.3751 54.1894 67.008 54.4317 59.0727C54.5762 54.3379 55.5059 49.0431 57.4749 43.2022H65.9472L65.9391 43.2069ZM86.6947 22.1475C89.195 22.1475 91.468 23.1673 93.1212 24.817L93.1282 24.81C94.7745 26.455 95.7927 28.7276 95.7927 31.2376C95.7927 33.7477 94.7745 36.0202 93.1282 37.6652C93.0572 37.7362 92.9838 37.8026 92.908 37.8655C91.2758 39.3929 89.0901 40.3278 86.6959 40.3278C84.1957 40.3278 81.9226 39.3079 80.2706 37.6582L80.2636 37.6652C78.6173 36.0202 77.5991 33.7477 77.5991 31.2376C77.5991 28.7276 78.6173 26.455 80.2636 24.81C80.3346 24.739 80.408 24.6726 80.4838 24.6098C82.116 23.0823 84.3017 22.1475 86.6959 22.1475H86.6947ZM88.6019 29.319C88.1219 28.8393 87.4485 28.5425 86.6947 28.5425C85.9992 28.5425 85.3712 28.7951 84.9005 29.2119L84.7875 29.3318C84.3005 29.8184 83.9976 30.4937 83.9976 31.2376C83.9976 31.9827 84.2994 32.6568 84.7875 33.1434L84.7805 33.1504L84.7875 33.1562C85.2675 33.6359 85.9409 33.9328 86.6947 33.9328C87.3903 33.9328 88.0194 33.6801 88.4889 33.2633L88.6019 33.1434C89.0889 32.6568 89.3919 31.9816 89.3919 31.2376C89.3919 30.4925 89.0901 29.8184 88.6019 29.3318L88.6089 29.3248L88.6019 29.319ZM96.0898 81.0577C96.2588 81.0705 96.4277 81.0787 96.5966 81.0833C96.7679 81.088 96.9461 81.0868 97.1279 81.081C97.9632 81.0554 98.9081 80.8517 99.9136 80.471C102.566 79.4651 105.356 77.2845 107.481 73.906C109.719 70.3481 111.186 65.491 110.997 59.2928C110.858 54.7372 109.815 49.4622 107.532 43.4455C107.502 43.3664 107.475 43.286 107.45 43.2057H115.923C117.892 49.0454 118.821 54.3391 118.966 59.0751C119.208 67.0092 117.236 73.3786 114.232 78.153C111.116 83.1079 106.857 86.37 102.727 87.9347C100.917 88.6204 99.0899 88.9907 97.3481 89.043C97.0429 89.0524 96.7295 89.0524 96.4102 89.0454C93.9147 88.9825 91.3958 88.3771 88.9806 87.3316C91.0416 86.0277 92.9348 84.4619 94.5881 82.74C95.1088 82.1975 95.611 81.6363 96.0922 81.0565L96.0898 81.0577Z" fill="white"/>
<path d="M136.68 60.8906H127.93V69.6339H136.68V60.8906Z" fill="#FF3F12"/>
<path d="M123.596 88.2871H114.847V97.0303H123.596V88.2871Z" fill="#FF3F12"/>
<path d="M192.829 67.5291L200.325 44.4463H195.793L191.217 58.9058L186.379 44.4463H182.98L178.142 58.9488L173.566 44.4463H168.945L176.486 67.5291H179.624L184.636 52.5038L189.692 67.5291H192.83H192.829ZM202.2 67.6164H206.819V44.4463H202.2V67.6164ZM231.88 47.4523C230.355 46.2764 228.96 45.6233 227.26 45.0563C225.037 44.2286 223.032 43.9678 220.897 43.9678C217.236 43.9678 215.056 44.969 213.792 46.0145C212.616 47.0169 211.351 48.5839 211.351 51.1975C211.351 52.8961 211.918 53.9846 212.746 54.8124C214.097 56.206 216.408 56.9464 219.414 57.1641L222.813 57.4249C223.86 57.5553 224.993 57.5553 226.169 58.0349C226.867 58.34 227.999 58.9058 227.999 60.3436C227.999 61.084 227.694 62.1295 226.342 62.8699C225.253 63.523 223.814 63.6977 222.42 63.6977C220.459 63.6977 218.889 63.4369 217.277 62.7838C215.708 62.1306 214.226 61.2156 213.006 60.2143L210.217 64.09C211.742 65.4405 213.398 66.3113 215.316 67.0075C217.452 67.748 219.762 68.0961 222.159 68.0961C224.251 68.0961 227.476 67.8783 230.004 65.8317C232.27 63.9584 232.75 61.6941 232.75 60.1259C232.75 57.6868 231.529 56.206 230.527 55.3794C229.002 54.0289 226.649 53.3758 224.208 53.1581L221.114 52.8973C218.716 52.6796 217.889 52.5049 217.365 52.3315C217.017 52.2011 216.058 51.8087 216.058 50.8075C216.058 50.1544 216.407 49.457 217.453 48.9785C218.019 48.6735 218.935 48.4127 220.635 48.4127C222.204 48.4127 223.99 48.7178 225.385 49.1962C226.736 49.6759 228.174 50.4164 229.438 51.2429L231.879 47.4546L231.88 47.4523ZM246.525 48.8458H255.415V44.4474H233.057V48.8458H241.948V67.5291H246.525V48.8458ZM266.724 56.3317L267.271 57.4249H267.266L270.982 64.9073L272.283 67.5291H277.34L265.921 44.4463H262.478L251.147 67.5291H256.203L258.949 61.8244H258.976L261.138 57.4261H261.128L264.179 51.2418L266.682 56.2432L266.726 56.3329L266.724 56.3317ZM288.539 67.5291L299.522 44.4463H294.423L287.101 60.0816L279.778 44.4463H274.722L285.662 67.5291H288.538H288.539ZM301.049 67.5291H320.487V63.1307H305.625V57.4691H314.124V53.0707H305.625V48.847H319.615V44.4486H301.049V67.5314V67.5291ZM328.245 54.072V52.0369V48.8458H336.264C337.135 48.8458 338.051 48.8027 338.705 49.2812C339.185 49.5863 339.664 50.2394 339.664 51.3279C339.664 52.0684 339.446 52.8519 338.923 53.3746C338.269 54.0277 337.441 54.072 336.612 54.072H330.786V58.5146H334.869L340.187 67.5302H345.329L339.838 58.1234C341.189 57.6438 342.279 56.8602 343.063 55.859C344.153 54.4655 344.371 52.9846 344.371 51.6341C344.371 50.0659 344.065 47.9762 342.497 46.408C340.754 44.6663 338.444 44.4486 336.919 44.4486H323.67V67.5314H328.246V58.9919V58.5169V54.0743L328.245 54.072ZM367.558 47.4523C366.033 46.2764 364.638 45.6233 362.938 45.0563C360.715 44.2286 358.71 43.9678 356.575 43.9678C352.914 43.9678 350.734 44.969 349.47 46.0145C348.293 47.0169 347.029 48.5839 347.029 51.1975C347.029 52.8961 347.595 53.9846 348.424 54.8124C349.775 56.206 352.086 56.9464 355.092 57.1641L358.491 57.4249C359.537 57.5553 360.671 57.5553 361.847 58.0349C362.544 58.34 363.677 58.9058 363.677 60.3436C363.677 61.084 363.372 62.1295 362.02 62.8699C360.931 63.523 359.492 63.6977 358.097 63.6977C356.137 63.6977 354.567 63.4369 352.955 62.7838C351.385 62.1306 349.903 61.2156 348.684 60.2143L345.894 64.09C347.42 65.4405 349.076 66.3113 350.994 67.0075C353.13 67.748 355.44 68.0961 357.836 68.0961C359.929 68.0961 363.154 67.8783 365.682 65.8317C367.948 63.9584 368.428 61.6941 368.428 60.1259C368.428 57.6868 367.207 56.206 366.205 55.3794C364.68 54.0289 362.327 53.3758 359.886 53.1581L356.791 52.8973C354.394 52.6796 353.566 52.5049 353.043 52.3315C352.695 52.2011 351.736 51.8087 351.736 50.8075C351.736 50.1544 352.084 49.457 353.131 48.9785C353.697 48.6735 354.613 48.4127 356.312 48.4127C357.882 48.4127 359.668 48.7178 361.062 49.1962C362.414 49.6759 363.852 50.4164 365.116 51.2429L367.557 47.4546L367.558 47.4523ZM373.006 67.5291H392.444V63.1307H377.582V57.4691H386.081V53.0707H377.582V48.847H391.572V44.4486H373.006V67.5314V67.5291Z" fill="#FF3F12"/>
</svg>
